<svg width="480" height="179" viewBox="0 0 480 179" fill="none" xmlns="http://www.w3.org/2000/svg">
<path d="M86.0762 4.63291C85.722 4.12658 82.8291 4 82.3125 4C81.7959 4 78.903 4.12658 78.5487 4.63291C78.106 5.26582 65.7077 16.4472 51.7597 20.4556C37.8117 24.464 39.1401 24.675 19.4358 25.9408C18.5502 25.9408 16.4691 26.6159 15.2292 29.3163L4.8236 41.9745C4.307 42.6074 3.58377 44.3373 4.8236 46.1939C6.37337 48.5145 9.25153 48.5145 15.0079 53.5778C19.6129 57.6284 23.5685 64.6888 24.9707 67.7127C26.0039 70.0334 28.2031 76.0671 28.7345 81.6367C29.2658 87.2063 28.5131 95.9123 28.0703 99.5691C27.1847 103.226 24.8379 111.299 22.5353 114.337C19.6572 118.134 18.5502 120.455 10.5799 126.784C9.76813 127.417 7.6132 128.936 5.48779 129.949C2.83102 131.214 4.15941 135.434 6.15198 136.7C8.36595 139.864 13.7238 146.953 17.4432 149.991C17.8122 150.553 18.8159 151.51 19.8786 150.835C22.6091 150.835 28.8673 150.961 32.0554 151.468C36.0406 152.1 40.4685 152.733 49.3244 155.476C58.0892 158.19 60.5649 159.665 69.2004 164.808L69.4715 164.97C71.2427 166.024 74.4529 168.134 76.7776 172.564C77.368 173.69 77.6632 174.885 82.3125 174.885C86.9618 174.885 87.257 173.69 87.8474 172.564C90.1721 168.134 93.3823 166.024 95.1535 164.97L95.4246 164.808C104.06 159.665 106.536 158.19 115.301 155.476C124.156 152.733 128.584 152.1 132.57 151.468C135.758 150.961 142.016 150.835 144.746 150.835C145.809 151.51 146.813 150.553 147.182 149.991C150.901 146.953 156.259 139.864 158.473 136.7C160.466 135.434 161.794 131.214 159.137 129.949C157.012 128.936 154.857 127.417 154.045 126.784C146.075 120.455 144.968 118.134 142.09 114.337C139.787 111.299 137.44 103.226 136.555 99.5691C136.112 95.9123 135.359 87.2063 135.891 81.6367C136.422 76.0671 138.621 70.0334 139.654 67.7127C141.056 64.6888 145.012 57.6284 149.617 53.5778C155.373 48.5145 158.252 48.5145 159.801 46.1939C161.041 44.3373 160.318 42.6074 159.801 41.9745L149.396 29.3163C148.156 26.6159 146.075 25.9408 145.189 25.9408C125.485 24.675 126.813 24.464 112.865 20.4556C98.9173 16.4472 86.519 5.26582 86.0762 4.63291Z" fill="#CBCABB" stroke="#211714" stroke-width="7"/>
<path d="M94.9326 23.8309L105.338 28.6832" stroke="#211714" stroke-width="7"/>
<path d="M113.751 31.6367L125.042 34.1684" stroke="#211714" stroke-width="7"/>
<path d="M142.754 47.0377L147.403 43.4512L140.319 35.4344H134.341" stroke="#211714" stroke-width="7"/>
<path d="M136.112 53.7888L129.913 64.1263" stroke="#211714" stroke-width="7"/>
<path d="M127.035 72.5649L125.264 84.5901" stroke="#211714" stroke-width="7"/>
<path d="M125.264 93.662L127.035 105.476" stroke="#211714" stroke-width="7"/>
<path d="M129.913 114.126L136.112 124.252" stroke="#211714" stroke-width="7"/>
<path d="M142.532 131.003L147.403 134.801L140.761 142.818L134.562 143.451" stroke="#211714" stroke-width="7"/>
<path d="M125.263 144.506L113.972 147.248" stroke="#211714" stroke-width="7"/>
<path d="M105.56 149.78L95.1543 154.632" stroke="#211714" stroke-width="7"/>
<path d="M90.3442 19.8227L82.4266 14.5311C82.3121 14.4225 82.083 14.4225 82.083 14.4225" stroke="#211714" stroke-width="7"/>
<path d="M73.7225 19.8227L81.6401 14.5311C81.7547 14.4225 82.083 14.4225 82.083 14.4225" stroke="#211714" stroke-width="7"/>
<path d="M69.6923 23.8309L59.2866 28.6832" stroke="#211714" stroke-width="7"/>
<path d="M50.8738 31.6367L39.5825 34.1684" stroke="#211714" stroke-width="7"/>
<path d="M21.872 47.0377L17.2227 43.4512L24.3074 35.4344H30.2851" stroke="#211714" stroke-width="7"/>
<path d="M28.5127 53.7888L34.7118 64.1263" stroke="#211714" stroke-width="7"/>
<path d="M37.5908 72.5649L39.362 84.5901" stroke="#211714" stroke-width="7"/>
<path d="M39.362 93.662L37.5908 105.476" stroke="#211714" stroke-width="7"/>
<path d="M34.7118 114.126L28.5127 124.252" stroke="#211714" stroke-width="7"/>
<path d="M22.0934 131.003L17.2227 134.801L23.8646 142.818L30.0637 143.451" stroke="#211714" stroke-width="7"/>
<path d="M39.3608 144.506L50.6521 147.248" stroke="#211714" stroke-width="7"/>
<path d="M59.0664 149.78L69.4721 154.632" stroke="#211714" stroke-width="7"/>
<path d="M72.5234 158.66C75.1525 159.792 80.5946 161.754 82.3125 161.754" stroke="#211714" stroke-width="7"/>
<path d="M92.1016 158.66C89.0286 159.782 84.3204 161.754 82.3125 161.754" stroke="#211714" stroke-width="7"/>
<path d="M204.96 75V42H190.08V33H230.28V42H215.16V75H204.96ZM262.42 75.36C258.38 75.36 254.82 74.56 251.74 72.96C248.7 71.36 246.32 69.14 244.6 66.3C242.92 63.46 242.08 60.24 242.08 56.64V33H252.4V56.28C252.4 58.24 252.82 59.98 253.66 61.5C254.54 63.02 255.74 64.2 257.26 65.04C258.78 65.88 260.5 66.3 262.42 66.3C264.38 66.3 266.14 65.88 267.7 65.04C269.26 64.2 270.48 63.02 271.36 61.5C272.28 59.98 272.74 58.24 272.74 56.28V33H282.7V56.64C282.7 60.24 281.84 63.46 280.12 66.3C278.44 69.14 276.06 71.36 272.98 72.96C269.94 74.56 266.42 75.36 262.42 75.36ZM320.174 75.6C316.574 75.6 313.274 75.06 310.274 73.98C307.314 72.86 304.734 71.32 302.534 69.36C300.374 67.4 298.694 65.1 297.494 62.46C296.294 59.78 295.694 56.9 295.694 53.82C295.694 50.7 296.294 47.82 297.494 45.18C298.694 42.54 300.394 40.24 302.594 38.28C304.794 36.32 307.374 34.8 310.334 33.72C313.294 32.6 316.554 32.04 320.114 32.04C323.714 32.04 326.994 32.58 329.954 33.66C332.954 34.74 335.534 36.28 337.694 38.28C339.894 40.24 341.574 42.54 342.734 45.18C343.934 47.82 344.534 50.7 344.534 53.82C344.534 56.94 343.934 59.82 342.734 62.46C341.574 65.1 339.894 67.42 337.694 69.42C335.534 71.38 332.954 72.9 329.954 73.98C326.994 75.06 323.734 75.6 320.174 75.6ZM320.174 66C322.214 66 324.094 65.7 325.814 65.1C327.534 64.46 329.014 63.6 330.254 62.52C331.494 61.4 332.454 60.1 333.134 58.62C333.814 57.14 334.154 55.54 334.154 53.82C334.154 52.1 333.814 50.5 333.134 49.02C332.454 47.54 331.494 46.26 330.254 45.18C329.014 44.06 327.514 43.2 325.754 42.6C324.034 41.96 322.174 41.64 320.174 41.64C318.134 41.64 316.254 41.96 314.534 42.6C312.814 43.2 311.314 44.04 310.034 45.12C308.754 46.2 307.774 47.5 307.094 49.02C306.454 50.5 306.134 52.1 306.134 53.82C306.134 55.54 306.454 57.16 307.094 58.68C307.774 60.16 308.754 61.44 310.034 62.52C311.314 63.6 312.814 64.46 314.534 65.1C316.254 65.7 318.134 66 320.174 66ZM357.987 75V33H379.887C382.967 33 385.647 33.56 387.927 34.68C390.207 35.8 391.967 37.38 393.207 39.42C394.487 41.42 395.127 43.76 395.127 46.44C395.127 49.08 394.447 51.48 393.087 53.64C391.767 55.76 389.947 57.42 387.627 58.62C385.347 59.82 382.787 60.42 379.947 60.42H367.707V75H357.987ZM385.527 75L372.807 56.04L383.367 54.54L397.287 75H385.527ZM367.707 52.62H378.867C380.027 52.62 381.047 52.38 381.927 51.9C382.847 51.42 383.567 50.76 384.087 49.92C384.647 49.04 384.927 48.04 384.927 46.92C384.927 45.8 384.627 44.84 384.027 44.04C383.467 43.24 382.707 42.62 381.747 42.18C380.787 41.74 379.667 41.52 378.387 41.52H367.707V52.62ZM224.82 150V108H235.02V150H224.82ZM194.1 150V108H204.3V150H194.1ZM198.06 133.74L198.18 124.62H230.22V133.74H198.06ZM272.83 150.6C269.23 150.6 265.93 150.06 262.93 148.98C259.97 147.86 257.39 146.32 255.19 144.36C253.03 142.4 251.35 140.1 250.15 137.46C248.95 134.78 248.35 131.9 248.35 128.82C248.35 125.7 248.95 122.82 250.15 120.18C251.35 117.54 253.05 115.24 255.25 113.28C257.45 111.32 260.03 109.8 262.99 108.72C265.95 107.6 269.21 107.04 272.77 107.04C276.37 107.04 279.65 107.58 282.61 108.66C285.61 109.74 288.19 111.28 290.35 113.28C292.55 115.24 294.23 117.54 295.39 120.18C296.59 122.82 297.19 125.7 297.19 128.82C297.19 131.94 296.59 134.82 295.39 137.46C294.23 140.1 292.55 142.42 290.35 144.42C288.19 146.38 285.61 147.9 282.61 148.98C279.65 150.06 276.39 150.6 272.83 150.6ZM272.83 141C274.87 141 276.75 140.7 278.47 140.1C280.19 139.46 281.67 138.6 282.91 137.52C284.15 136.4 285.11 135.1 285.79 133.62C286.47 132.14 286.81 130.54 286.81 128.82C286.81 127.1 286.47 125.5 285.79 124.02C285.11 122.54 284.15 121.26 282.91 120.18C281.67 119.06 280.17 118.2 278.41 117.6C276.69 116.96 274.83 116.64 272.83 116.64C270.79 116.64 268.91 116.96 267.19 117.6C265.47 118.2 263.97 119.04 262.69 120.12C261.41 121.2 260.43 122.5 259.75 124.02C259.11 125.5 258.79 127.1 258.79 128.82C258.79 130.54 259.11 132.16 259.75 133.68C260.43 135.16 261.41 136.44 262.69 137.52C263.97 138.6 265.47 139.46 267.19 140.1C268.91 140.7 270.79 141 272.83 141ZM330.623 150.36C326.583 150.36 323.023 149.56 319.943 147.96C316.903 146.36 314.523 144.14 312.803 141.3C311.123 138.46 310.283 135.24 310.283 131.64V108H320.603V131.28C320.603 133.24 321.023 134.98 321.863 136.5C322.743 138.02 323.943 139.2 325.463 140.04C326.983 140.88 328.703 141.3 330.623 141.3C332.583 141.3 334.343 140.88 335.903 140.04C337.463 139.2 338.683 138.02 339.563 136.5C340.483 134.98 340.943 133.24 340.943 131.28V108H350.903V131.64C350.903 135.24 350.043 138.46 348.323 141.3C346.643 144.14 344.263 146.36 341.183 147.96C338.143 149.56 334.623 150.36 330.623 150.36ZM382.871 150.6C379.751 150.6 376.891 150.28 374.291 149.64C371.731 149 369.431 148.12 367.391 147C365.351 145.88 363.511 144.54 361.871 142.98L367.211 135.3C369.891 137.82 372.591 139.58 375.311 140.58C378.071 141.54 380.791 142.02 383.471 142.02C384.711 142.02 385.911 141.88 387.071 141.6C388.271 141.32 389.251 140.88 390.011 140.28C390.811 139.68 391.211 138.88 391.211 137.88C391.211 137.24 391.011 136.7 390.611 136.26C390.211 135.78 389.671 135.38 388.991 135.06C388.311 134.7 387.511 134.42 386.591 134.22C385.711 134.02 384.751 133.84 383.711 133.68C382.671 133.52 381.591 133.36 380.471 133.2C377.911 132.84 375.611 132.32 373.571 131.64C371.571 130.92 369.851 130.04 368.411 129C367.011 127.92 365.951 126.66 365.231 125.22C364.511 123.78 364.151 122.12 364.151 120.24C364.151 118.2 364.631 116.36 365.591 114.72C366.551 113.08 367.891 111.7 369.611 110.58C371.331 109.42 373.291 108.54 375.491 107.94C377.731 107.34 380.131 107.04 382.691 107.04C385.571 107.04 388.111 107.32 390.311 107.88C392.551 108.44 394.511 109.22 396.191 110.22C397.871 111.22 399.271 112.34 400.391 113.58L394.871 120.24C393.831 119.28 392.631 118.46 391.271 117.78C389.951 117.1 388.551 116.58 387.071 116.22C385.591 115.86 384.111 115.68 382.631 115.68C381.071 115.68 379.711 115.84 378.551 116.16C377.391 116.44 376.471 116.86 375.791 117.42C375.111 117.98 374.771 118.7 374.771 119.58C374.771 120.3 375.051 120.92 375.611 121.44C376.211 121.96 376.971 122.4 377.891 122.76C378.811 123.08 379.831 123.34 380.951 123.54C382.111 123.74 383.251 123.92 384.371 124.08C386.691 124.4 388.891 124.84 390.971 125.4C393.091 125.92 394.951 126.64 396.551 127.56C398.191 128.48 399.451 129.68 400.331 131.16C401.251 132.6 401.711 134.46 401.711 136.74C401.711 139.66 400.891 142.16 399.251 144.24C397.651 146.28 395.431 147.86 392.591 148.98C389.791 150.06 386.551 150.6 382.871 150.6ZM414.647 150V108H448.607V116.7H424.547V141.3H449.207V150H414.647ZM419.807 132.78V124.5H445.907V132.78H419.807Z" fill="#211714"/>
</svg>
