<svg width="35" height="37" viewBox="0 0 35 37" fill="none" xmlns="http://www.w3.org/2000/svg">
<path d="M17.753 16.6667C15.664 16.6667 13.6606 15.894 12.1835 14.5188C10.7063 13.1435 9.87646 11.2783 9.87646 9.33333C9.87646 7.38841 10.7063 5.52315 12.1835 4.14788C13.6606 2.77262 15.664 2 17.753 2C19.842 2 21.8454 2.77262 23.3226 4.14788C24.7997 5.52315 25.6296 7.38841 25.6296 9.33333C25.6296 11.2783 24.7997 13.1435 23.3226 14.5188C21.8454 15.894 19.842 16.6667 17.753 16.6667Z" fill="#CBCABB" stroke="#211714" stroke-width="2.8" stroke-linecap="round"/>
<path d="M2 35V33.1667C2 30.2493 3.24477 27.4514 5.46048 25.3885C7.67619 23.3256 10.6813 22.1667 13.8148 22.1667H21.6914C24.8248 22.1667 27.83 23.3256 30.0457 25.3885C32.2614 27.4514 33.5062 30.2493 33.5062 33.1667V35" fill="#CBCABB"/>
<path d="M2 35V33.1667C2 30.2493 3.24477 27.4514 5.46048 25.3885C7.67619 23.3256 10.6813 22.1667 13.8148 22.1667H21.6914C24.8248 22.1667 27.83 23.3256 30.0457 25.3885C32.2614 27.4514 33.5062 30.2493 33.5062 33.1667V35H2Z" stroke="#211714" stroke-width="2.8" stroke-linecap="round"/>
</svg>
