<svg width="115" height="41" viewBox="0 0 115 41" fill="none" xmlns="http://www.w3.org/2000/svg">
<path d="M88 37.125C89.9021 37.125 91.5 35.6719 91.5 33.8125C91.5 31.9531 89.9021 30.5 88 30.5C86.0979 30.5 84.5 31.9531 84.5 33.8125C84.5 35.6719 86.0979 37.125 88 37.125Z" fill="#211714" stroke="#211714"/>
<path d="M104 37.125C105.902 37.125 107.5 35.6719 107.5 33.8125C107.5 31.9531 105.902 30.5 104 30.5C102.098 30.5 100.5 31.9531 100.5 33.8125C100.5 35.6719 102.098 37.125 104 37.125Z" fill="#211714" stroke="#211714"/>
<path d="M84.7149 6.97153L84.3854 7.28047L84.2615 6.88703L84.2566 6.87172L84.2514 6.85653C84.1246 6.48716 83.9071 6.16024 83.6253 5.90002C83.3441 5.64046 83.0067 5.45406 82.6443 5.35018C82.6439 5.35005 82.6435 5.34992 82.643 5.3498L77.8619 3.97231L77.8619 3.97231C77.5659 3.88702 77.2564 3.8576 76.9503 3.88482C76.6442 3.91204 76.3441 3.99568 76.067 4.13336C75.508 4.41104 75.0647 4.89877 74.8639 5.51146C74.662 6.12727 74.7315 6.79264 75.0482 7.35283C75.3627 7.90933 75.8857 8.30297 76.4815 8.47461L76.4824 8.47487L80.0411 9.49713L84.9002 23.8879L83.6974 24.8093L83.648 24.8471L83.6026 24.8897L83.4509 25.0319L83.4186 25.0622L83.3885 25.0947C82.7153 25.8219 82.3226 26.7602 82.2977 27.7505C82.2728 28.7409 82.618 29.6975 83.2558 30.456L83.2642 30.466L83.2728 30.4758C83.7206 30.9864 84.2839 31.3852 84.9135 31.6464C85.5333 31.9035 86.2045 32.022 86.8759 31.9953H106.321C106.937 31.9953 107.542 31.7667 108.001 31.3369C108.462 30.9045 108.738 30.3002 108.738 29.6516C108.738 29.003 108.462 28.3986 108.001 27.9663L107.198 28.8229L108.001 27.9663C107.542 27.5364 106.937 27.3078 106.321 27.3078H88.2457L89.2498 26.5266H106.822C107.354 26.5352 107.882 26.3733 108.318 26.0546C108.76 25.7315 109.085 25.2621 109.216 24.7154L112.914 9.40442L112.918 9.39061L112.921 9.37673C112.999 9.01546 112.989 8.64161 112.89 8.28566L111.686 8.61829L112.89 8.28563C112.794 7.93539 112.616 7.61665 112.377 7.35084C112.148 7.09022 111.867 6.88506 111.555 6.74477C111.239 6.60232 110.897 6.52874 110.552 6.52658H110.544H86.2542H86.1572L86.0613 6.54155L85.377 6.64842L84.9961 6.70789L84.7149 6.97153ZM86.3907 27.9544L86.6066 27.8255L86.3907 27.9544Z" fill="#584444" stroke="#211714" stroke-width="2.5"/>
<path d="M38.0016 5.5H38L8 5.5L7.99842 5.5C6.28208 5.50181 4.6325 6.17494 3.41268 7.37812C2.19217 8.58199 1.50186 10.2187 1.5 11.9302V11.9318L1.5 33.0682L1.5 33.0698C1.50186 34.7813 2.19217 36.418 3.41268 37.6219C4.6325 38.8251 6.28208 39.4982 7.99842 39.5H8H38H38.0016C39.7179 39.4982 41.3675 38.8251 42.5873 37.6219C43.8078 36.418 44.4981 34.7813 44.5 33.0698V33.0682V11.9318V11.9302C44.4981 10.2187 43.8078 8.58199 42.5873 7.37812C41.3675 6.17494 39.7179 5.50181 38.0016 5.5Z" fill="#779DA3" stroke="#211714" stroke-width="3"/>
<circle cx="42.5" cy="9.5" r="9.5" fill="#A83030"/>
</svg>
