<svg width="38" height="40" viewBox="0 0 38 40" fill="none" xmlns="http://www.w3.org/2000/svg">
<path d="M19 17.8276C16.7457 17.8276 14.5837 16.9938 12.9896 15.5097C11.3955 14.0256 10.5 12.0127 10.5 9.91382C10.5 7.81495 11.3955 5.80205 12.9896 4.31792C14.5837 2.8338 16.7457 2.00003 19 2.00003C21.2543 2.00003 23.4163 2.8338 25.0104 4.31792C26.6045 5.80205 27.5 7.81495 27.5 9.91382C27.5 12.0127 26.6045 14.0256 25.0104 15.5097C23.4163 16.9938 21.2543 17.8276 19 17.8276Z" stroke="#CBCABB" stroke-width="3" stroke-linecap="round"/>
<path d="M2 37.6121V35.6337C2 32.4854 3.3433 29.466 5.73439 27.2398C8.12548 25.0136 11.3685 23.763 14.75 23.763H23.25C26.6315 23.763 29.8745 25.0136 32.2656 27.2398C34.6567 29.466 36 32.4854 36 35.6337V37.6121" stroke="#CBCABB" stroke-width="3" stroke-linecap="round"/>
</svg>
