<svg width="226" height="230" viewBox="0 0 226 230" fill="none" xmlns="http://www.w3.org/2000/svg">
<path d="M221.522 115C221.522 176.652 172.644 226.5 112.511 226.5C52.3776 226.5 3.5 176.652 3.5 115C3.5 53.3477 52.3776 3.5 112.511 3.5C172.644 3.5 221.522 53.3477 221.522 115Z" fill="#64A847" stroke="#211714" stroke-width="7"/>
<path d="M113 104.448C104.247 104.448 95.8537 101.211 89.665 95.4493C83.4763 89.6875 79.9995 81.8727 79.9995 73.7241C79.9995 65.5756 83.4763 57.7608 89.665 51.9989C95.8537 46.237 104.247 43 113 43C121.752 43 130.145 46.237 136.334 51.9989C142.523 57.7608 146 65.5756 146 73.7241C146 81.8727 142.523 89.6875 136.334 95.4493C130.145 101.211 121.752 104.448 113 104.448Z" fill="#CBCABB" stroke="#211714" stroke-width="7" stroke-linecap="round"/>
<path d="M47 181.259V173.578C47 161.355 52.2152 149.633 61.4982 140.99C70.7813 132.347 83.3718 127.491 96.5 127.491H129.5C142.628 127.491 155.219 132.347 164.502 140.99C173.785 149.633 179 161.355 179 173.578V181.259" fill="#CBCABB"/>
<path d="M47 181.259V173.578C47 161.355 52.2152 149.633 61.4982 140.99C70.7813 132.347 83.3718 127.491 96.5 127.491H129.5C142.628 127.491 155.219 132.347 164.502 140.99C173.785 149.633 179 161.355 179 173.578V181.259H47Z" stroke="#211714" stroke-width="7" stroke-linecap="round"/>
</svg>
