<svg width="151" height="59" viewBox="0 0 151 59" fill="none" xmlns="http://www.w3.org/2000/svg">
<path d="M27.1535 2.20461C27.0449 2.04092 26.1583 2 26 2C25.8417 2 24.9551 2.04092 24.8465 2.20461C24.7108 2.40922 20.9112 6.02404 16.6367 7.31992C12.3621 8.61579 12.7692 8.684 6.73052 9.09322C6.45912 9.09322 5.82133 9.31147 5.44137 10.1845L2.2524 14.2767C2.09409 14.4813 1.87244 15.0406 2.2524 15.6408C2.72736 16.3911 3.60941 16.3911 5.37352 18.028C6.7848 19.3375 7.99706 21.62 8.42678 22.5976C8.74341 23.3479 9.41739 25.2985 9.58023 27.0991C9.74307 28.8997 9.51238 31.7142 9.37668 32.8964C9.10528 34.0786 8.38607 36.6886 7.68043 37.6707C6.79837 38.8984 6.45912 39.6486 4.01651 41.6948C3.76773 41.8994 3.10732 42.3904 2.45595 42.7178C1.64175 43.127 2.04885 44.4911 2.6595 44.9003C3.33801 45.9234 4.97999 48.2151 6.11987 49.1972C6.23295 49.3791 6.54054 49.6883 6.86622 49.47C7.70304 49.47 9.62094 49.5109 10.598 49.6746C11.8193 49.8792 13.1763 50.0839 15.8903 50.9705C18.5764 51.848 19.3351 52.3247 21.9816 53.9875L22.0647 54.0397C22.6075 54.3807 23.5913 55.0628 24.3037 56.495C24.4847 56.8588 24.5751 57.2453 26 57.2453C27.4249 57.2453 27.5153 56.8588 27.6963 56.495C28.4087 55.0628 29.3925 54.3807 29.9353 54.0397L30.0184 53.9875C32.6649 52.3247 33.4236 51.848 36.1097 50.9705C38.8237 50.0839 40.1807 49.8792 41.402 49.6746C42.3791 49.5109 44.297 49.47 45.1338 49.47C45.4595 49.6883 45.7671 49.3791 45.8801 49.1972C47.02 48.2151 48.662 45.9234 49.3405 44.9003C49.9512 44.4911 50.3583 43.127 49.544 42.7178C48.8927 42.3904 48.2323 41.8994 47.9835 41.6948C45.5409 39.6486 45.2016 38.8984 44.3196 37.6707C43.6139 36.6886 42.8947 34.0786 42.6233 32.8964C42.4876 31.7142 42.2569 28.8997 42.4198 27.0991C42.5826 25.2985 43.2566 23.3479 43.5732 22.5976C44.0029 21.62 45.2152 19.3375 46.6265 18.028C48.3906 16.3911 49.2726 16.3911 49.7476 15.6408C50.1276 15.0406 49.9059 14.4813 49.7476 14.2767L46.5586 10.1845C46.1787 9.31147 45.5409 9.09322 45.2695 9.09322C39.2308 8.684 39.6379 8.61579 35.3633 7.31992C31.0888 6.02404 27.2892 2.40922 27.1535 2.20461Z" fill="#CBCABB" stroke="#211714" stroke-width="2.2"/>
<path d="M29.8676 8.41113L33.0565 9.97983" stroke="#211714" stroke-width="2.2"/>
<path d="M35.6346 10.9346L39.095 11.7531" stroke="#211714" stroke-width="2.2"/>
<path d="M44.5231 15.9136L45.9479 14.7541L43.7767 12.1624H41.9448" stroke="#211714" stroke-width="2.2"/>
<path d="M42.4876 18.0962L40.5878 21.4382" stroke="#211714" stroke-width="2.2"/>
<path d="M39.7057 24.1663L39.1629 28.0539" stroke="#211714" stroke-width="2.2"/>
<path d="M39.1629 30.9868L39.7057 34.8062" stroke="#211714" stroke-width="2.2"/>
<path d="M40.5878 37.6025L42.4876 40.8763" stroke="#211714" stroke-width="2.2"/>
<path d="M44.4553 43.0588L45.948 44.2864L43.9125 46.8782L42.0127 47.0828" stroke="#211714" stroke-width="2.2"/>
<path d="M39.1629 47.4239L35.7026 48.3105" stroke="#211714" stroke-width="2.2"/>
<path d="M33.1243 49.129L29.9353 50.6977" stroke="#211714" stroke-width="2.2"/>
<path d="M28.4616 7.11534L26.0351 5.40461C26 5.36951 25.9298 5.36951 25.9298 5.36951" stroke="#211714" stroke-width="2.2"/>
<path d="M23.3676 7.11534L25.7941 5.40461C25.8292 5.36951 25.9298 5.36951 25.9298 5.36951" stroke="#211714" stroke-width="2.2"/>
<path d="M22.1325 8.41113L18.9435 9.97983" stroke="#211714" stroke-width="2.2"/>
<path d="M16.3652 10.9346L12.9048 11.7531" stroke="#211714" stroke-width="2.2"/>
<path d="M7.47692 15.9136L6.05206 14.7541L8.22327 12.1624H10.0552" stroke="#211714" stroke-width="2.2"/>
<path d="M9.51239 18.0962L11.4122 21.4382" stroke="#211714" stroke-width="2.2"/>
<path d="M12.2943 24.1663L12.8371 28.0539" stroke="#211714" stroke-width="2.2"/>
<path d="M12.8371 30.9868L12.2943 34.8062" stroke="#211714" stroke-width="2.2"/>
<path d="M11.4122 37.6025L9.51239 40.8763" stroke="#211714" stroke-width="2.2"/>
<path d="M7.54477 43.0588L6.05206 44.2864L8.08757 46.8782L9.98738 47.0828" stroke="#211714" stroke-width="2.2"/>
<path d="M12.8371 47.4239L16.2975 48.3105" stroke="#211714" stroke-width="2.2"/>
<path d="M18.8758 49.129L22.0648 50.6977" stroke="#211714" stroke-width="2.2"/>
<path d="M23 52C23.8057 52.3659 25.4735 53 26 53" stroke="#211714" stroke-width="2.2"/>
<path d="M29 52C28.0583 52.3627 26.6154 53 26 53" stroke="#211714" stroke-width="2.2"/>
<path d="M67.32 25V14H62.36V11H75.76V14H70.72V25H67.32ZM86.4733 25.12C85.1266 25.12 83.9399 24.8533 82.9133 24.32C81.8999 23.7867 81.1066 23.0467 80.5333 22.1C79.9733 21.1533 79.6933 20.08 79.6933 18.88V11H83.1333V18.76C83.1333 19.4133 83.2733 19.9933 83.5533 20.5C83.8466 21.0067 84.2466 21.4 84.7533 21.68C85.2599 21.96 85.8333 22.1 86.4733 22.1C87.1266 22.1 87.7133 21.96 88.2333 21.68C88.7533 21.4 89.1599 21.0067 89.4533 20.5C89.7599 19.9933 89.9133 19.4133 89.9133 18.76V11H93.2333V18.88C93.2333 20.08 92.9466 21.1533 92.3733 22.1C91.8133 23.0467 91.0199 23.7867 89.9933 24.32C88.9799 24.8533 87.8066 25.12 86.4733 25.12ZM105.725 25.2C104.525 25.2 103.425 25.02 102.425 24.66C101.438 24.2867 100.578 23.7733 99.8447 23.12C99.1247 22.4667 98.5647 21.7 98.1647 20.82C97.7647 19.9267 97.5647 18.9667 97.5647 17.94C97.5647 16.9 97.7647 15.94 98.1647 15.06C98.5647 14.18 99.1314 13.4133 99.8647 12.76C100.598 12.1067 101.458 11.6 102.445 11.24C103.431 10.8667 104.518 10.68 105.705 10.68C106.905 10.68 107.998 10.86 108.985 11.22C109.985 11.58 110.845 12.0933 111.565 12.76C112.298 13.4133 112.858 14.18 113.245 15.06C113.645 15.94 113.845 16.9 113.845 17.94C113.845 18.98 113.645 19.94 113.245 20.82C112.858 21.7 112.298 22.4733 111.565 23.14C110.845 23.7933 109.985 24.3 108.985 24.66C107.998 25.02 106.911 25.2 105.725 25.2ZM105.725 22C106.405 22 107.031 21.9 107.605 21.7C108.178 21.4867 108.671 21.2 109.085 20.84C109.498 20.4667 109.818 20.0333 110.045 19.54C110.271 19.0467 110.385 18.5133 110.385 17.94C110.385 17.3667 110.271 16.8333 110.045 16.34C109.818 15.8467 109.498 15.42 109.085 15.06C108.671 14.6867 108.171 14.4 107.585 14.2C107.011 13.9867 106.391 13.88 105.725 13.88C105.045 13.88 104.418 13.9867 103.845 14.2C103.271 14.4 102.771 14.68 102.345 15.04C101.918 15.4 101.591 15.8333 101.365 16.34C101.151 16.8333 101.045 17.3667 101.045 17.94C101.045 18.5133 101.151 19.0533 101.365 19.56C101.591 20.0533 101.918 20.48 102.345 20.84C102.771 21.2 103.271 21.4867 103.845 21.7C104.418 21.9 105.045 22 105.725 22ZM118.329 25V11H125.629C126.656 11 127.549 11.1867 128.309 11.56C129.069 11.9333 129.656 12.46 130.069 13.14C130.496 13.8067 130.709 14.5867 130.709 15.48C130.709 16.36 130.482 17.16 130.029 17.88C129.589 18.5867 128.982 19.14 128.209 19.54C127.449 19.94 126.596 20.14 125.649 20.14H121.569V25H118.329ZM127.509 25L123.269 18.68L126.789 18.18L131.429 25H127.509ZM121.569 17.54H125.289C125.676 17.54 126.016 17.46 126.309 17.3C126.616 17.14 126.856 16.92 127.029 16.64C127.216 16.3467 127.309 16.0133 127.309 15.64C127.309 15.2667 127.209 14.9467 127.009 14.68C126.822 14.4133 126.569 14.2067 126.249 14.06C125.929 13.9133 125.556 13.84 125.129 13.84H121.569V17.54ZM73.94 50V36H77.34V50H73.94ZM63.7 50V36H67.1V50H63.7ZM65.02 44.58L65.06 41.54H75.74V44.58H65.02ZM89.9434 50.2C88.7434 50.2 87.6434 50.02 86.6434 49.66C85.6568 49.2867 84.7968 48.7733 84.0634 48.12C83.3434 47.4667 82.7834 46.7 82.3834 45.82C81.9834 44.9267 81.7834 43.9667 81.7834 42.94C81.7834 41.9 81.9834 40.94 82.3834 40.06C82.7834 39.18 83.3501 38.4133 84.0834 37.76C84.8168 37.1067 85.6768 36.6 86.6634 36.24C87.6501 35.8667 88.7368 35.68 89.9234 35.68C91.1234 35.68 92.2168 35.86 93.2034 36.22C94.2034 36.58 95.0634 37.0933 95.7834 37.76C96.5168 38.4133 97.0768 39.18 97.4634 40.06C97.8634 40.94 98.0634 41.9 98.0634 42.94C98.0634 43.98 97.8634 44.94 97.4634 45.82C97.0768 46.7 96.5168 47.4733 95.7834 48.14C95.0634 48.7933 94.2034 49.3 93.2034 49.66C92.2168 50.02 91.1301 50.2 89.9434 50.2ZM89.9434 47C90.6234 47 91.2501 46.9 91.8234 46.7C92.3968 46.4867 92.8901 46.2 93.3034 45.84C93.7168 45.4667 94.0368 45.0333 94.2634 44.54C94.4901 44.0467 94.6034 43.5133 94.6034 42.94C94.6034 42.3667 94.4901 41.8333 94.2634 41.34C94.0368 40.8467 93.7168 40.42 93.3034 40.06C92.8901 39.6867 92.3901 39.4 91.8034 39.2C91.2301 38.9867 90.6101 38.88 89.9434 38.88C89.2634 38.88 88.6368 38.9867 88.0634 39.2C87.4901 39.4 86.9901 39.68 86.5634 40.04C86.1368 40.4 85.8101 40.8333 85.5834 41.34C85.3701 41.8333 85.2634 42.3667 85.2634 42.94C85.2634 43.5133 85.3701 44.0533 85.5834 44.56C85.8101 45.0533 86.1368 45.48 86.5634 45.84C86.9901 46.2 87.4901 46.4867 88.0634 46.7C88.6368 46.9 89.2634 47 89.9434 47ZM109.208 50.12C107.861 50.12 106.674 49.8533 105.648 49.32C104.634 48.7867 103.841 48.0467 103.268 47.1C102.708 46.1533 102.428 45.08 102.428 43.88V36H105.868V43.76C105.868 44.4133 106.008 44.9933 106.288 45.5C106.581 46.0067 106.981 46.4 107.488 46.68C107.994 46.96 108.568 47.1 109.208 47.1C109.861 47.1 110.448 46.96 110.968 46.68C111.488 46.4 111.894 46.0067 112.188 45.5C112.494 44.9933 112.648 44.4133 112.648 43.76V36H115.968V43.88C115.968 45.08 115.681 46.1533 115.108 47.1C114.548 48.0467 113.754 48.7867 112.728 49.32C111.714 49.8533 110.541 50.12 109.208 50.12ZM126.624 50.2C125.584 50.2 124.63 50.0933 123.764 49.88C122.91 49.6667 122.144 49.3733 121.464 49C120.784 48.6267 120.17 48.18 119.624 47.66L121.404 45.1C122.297 45.94 123.197 46.5267 124.104 46.86C125.024 47.18 125.93 47.34 126.824 47.34C127.237 47.34 127.637 47.2933 128.024 47.2C128.424 47.1067 128.75 46.96 129.004 46.76C129.27 46.56 129.404 46.2933 129.404 45.96C129.404 45.7467 129.337 45.5667 129.204 45.42C129.07 45.26 128.89 45.1267 128.664 45.02C128.437 44.9 128.17 44.8067 127.864 44.74C127.57 44.6733 127.25 44.6133 126.904 44.56C126.557 44.5067 126.197 44.4533 125.824 44.4C124.97 44.28 124.204 44.1067 123.524 43.88C122.857 43.64 122.284 43.3467 121.804 43C121.337 42.64 120.984 42.22 120.744 41.74C120.504 41.26 120.384 40.7067 120.384 40.08C120.384 39.4 120.544 38.7867 120.864 38.24C121.184 37.6933 121.63 37.2333 122.204 36.86C122.777 36.4733 123.43 36.18 124.164 35.98C124.91 35.78 125.71 35.68 126.564 35.68C127.524 35.68 128.37 35.7733 129.104 35.96C129.85 36.1467 130.504 36.4067 131.064 36.74C131.624 37.0733 132.09 37.4467 132.464 37.86L130.624 40.08C130.277 39.76 129.877 39.4867 129.424 39.26C128.984 39.0333 128.517 38.86 128.024 38.74C127.53 38.62 127.037 38.56 126.544 38.56C126.024 38.56 125.57 38.6133 125.184 38.72C124.797 38.8133 124.49 38.9533 124.264 39.14C124.037 39.3267 123.924 39.5667 123.924 39.86C123.924 40.1 124.017 40.3067 124.204 40.48C124.404 40.6533 124.657 40.8 124.964 40.92C125.27 41.0267 125.61 41.1133 125.984 41.18C126.37 41.2467 126.75 41.3067 127.124 41.36C127.897 41.4667 128.63 41.6133 129.324 41.8C130.03 41.9733 130.65 42.2133 131.184 42.52C131.73 42.8267 132.15 43.2267 132.444 43.72C132.75 44.2 132.904 44.82 132.904 45.58C132.904 46.5533 132.63 47.3867 132.084 48.08C131.55 48.76 130.81 49.2867 129.864 49.66C128.93 50.02 127.85 50.2 126.624 50.2ZM137.216 50V36H148.536V38.9H140.516V47.1H148.736V50H137.216ZM138.936 44.26V41.5H147.636V44.26H138.936Z" fill="#CBCABB"/>
</svg>
