<svg width="714" height="218" viewBox="0 0 714 218" fill="none" xmlns="http://www.w3.org/2000/svg">
<path d="M338.069 2.976C339.563 2.976 340.875 3.30666 342.005 3.968C343.136 4.608 344.021 5.504 344.661 6.656C345.301 7.78667 345.621 9.088 345.621 10.56C345.621 12.032 345.301 13.344 344.661 14.496C344.021 15.648 343.136 16.5547 342.005 17.216C340.875 17.856 339.563 18.176 338.069 18.176C336.619 18.176 335.317 17.856 334.165 17.216C333.035 16.5547 332.149 15.648 331.509 14.496C330.869 13.344 330.549 12.032 330.549 10.56C330.549 9.088 330.869 7.78667 331.509 6.656C332.149 5.504 333.035 4.608 334.165 3.968C335.296 3.30666 336.597 2.976 338.069 2.976ZM338.101 5.856C337.227 5.856 336.448 6.05867 335.765 6.464C335.104 6.848 334.581 7.392 334.197 8.096C333.813 8.8 333.621 9.62133 333.621 10.56C333.621 11.4773 333.813 12.2987 334.197 13.024C334.581 13.728 335.104 14.2827 335.765 14.688C336.448 15.0933 337.227 15.296 338.101 15.296C338.976 15.296 339.744 15.0933 340.405 14.688C341.088 14.2827 341.611 13.728 341.973 13.024C342.357 12.2987 342.549 11.4773 342.549 10.56C342.549 9.62133 342.357 8.8 341.973 8.096C341.611 7.392 341.088 6.848 340.405 6.464C339.744 6.05867 338.976 5.856 338.101 5.856ZM344.565 14.656L337.141 27.04C336.757 27.6373 336.267 27.936 335.669 27.936C335.243 27.936 334.869 27.808 334.549 27.552C334.251 27.296 334.059 26.976 333.973 26.592C333.909 26.1867 333.995 25.8027 334.229 25.44L338.773 17.888L344.565 14.656ZM356.663 2.976C358.156 2.976 359.468 3.30666 360.599 3.968C361.73 4.608 362.615 5.504 363.255 6.656C363.895 7.78667 364.215 9.088 364.215 10.56C364.215 12.032 363.895 13.344 363.255 14.496C362.615 15.648 361.73 16.5547 360.599 17.216C359.468 17.856 358.156 18.176 356.663 18.176C355.212 18.176 353.911 17.856 352.759 17.216C351.628 16.5547 350.743 15.648 350.103 14.496C349.463 13.344 349.143 12.032 349.143 10.56C349.143 9.088 349.463 7.78667 350.103 6.656C350.743 5.504 351.628 4.608 352.759 3.968C353.89 3.30666 355.191 2.976 356.663 2.976ZM356.695 5.856C355.82 5.856 355.042 6.05867 354.359 6.464C353.698 6.848 353.175 7.392 352.791 8.096C352.407 8.8 352.215 9.62133 352.215 10.56C352.215 11.4773 352.407 12.2987 352.791 13.024C353.175 13.728 353.698 14.2827 354.359 14.688C355.042 15.0933 355.82 15.296 356.695 15.296C357.57 15.296 358.338 15.0933 358.999 14.688C359.682 14.2827 360.204 13.728 360.567 13.024C360.951 12.2987 361.143 11.4773 361.143 10.56C361.143 9.62133 360.951 8.8 360.567 8.096C360.204 7.392 359.682 6.848 358.999 6.464C358.338 6.05867 357.57 5.856 356.695 5.856ZM363.159 14.656L355.735 27.04C355.351 27.6373 354.86 27.936 354.263 27.936C353.836 27.936 353.463 27.808 353.143 27.552C352.844 27.296 352.652 26.976 352.567 26.592C352.503 26.1867 352.588 25.8027 352.823 25.44L357.367 17.888L363.159 14.656ZM375.257 2.976C376.75 2.976 378.062 3.30666 379.193 3.968C380.324 4.608 381.209 5.504 381.849 6.656C382.489 7.78667 382.809 9.088 382.809 10.56C382.809 12.032 382.489 13.344 381.849 14.496C381.209 15.648 380.324 16.5547 379.193 17.216C378.062 17.856 376.75 18.176 375.257 18.176C373.806 18.176 372.505 17.856 371.353 17.216C370.222 16.5547 369.337 15.648 368.697 14.496C368.057 13.344 367.737 12.032 367.737 10.56C367.737 9.088 368.057 7.78667 368.697 6.656C369.337 5.504 370.222 4.608 371.353 3.968C372.484 3.30666 373.785 2.976 375.257 2.976ZM375.289 5.856C374.414 5.856 373.636 6.05867 372.953 6.464C372.292 6.848 371.769 7.392 371.385 8.096C371.001 8.8 370.809 9.62133 370.809 10.56C370.809 11.4773 371.001 12.2987 371.385 13.024C371.769 13.728 372.292 14.2827 372.953 14.688C373.636 15.0933 374.414 15.296 375.289 15.296C376.164 15.296 376.932 15.0933 377.593 14.688C378.276 14.2827 378.798 13.728 379.161 13.024C379.545 12.2987 379.737 11.4773 379.737 10.56C379.737 9.62133 379.545 8.8 379.161 8.096C378.798 7.392 378.276 6.848 377.593 6.464C376.932 6.05867 376.164 5.856 375.289 5.856ZM381.753 14.656L374.329 27.04C373.945 27.6373 373.454 27.936 372.857 27.936C372.43 27.936 372.057 27.808 371.737 27.552C371.438 27.296 371.246 26.976 371.161 26.592C371.097 26.1867 371.182 25.8027 371.417 25.44L375.961 17.888L381.753 14.656ZM245.895 64C245.426 64 245.031 63.84 244.711 63.52C244.391 63.2 244.231 62.8053 244.231 62.336V40.672C244.231 40.1813 244.391 39.7867 244.711 39.488C245.031 39.168 245.426 39.008 245.895 39.008H262.919C263.41 39.008 263.805 39.168 264.103 39.488C264.423 39.7867 264.583 40.1813 264.583 40.672V62.336C264.583 62.8053 264.423 63.2 264.103 63.52C263.805 63.84 263.41 64 262.919 64C262.45 64 262.055 63.84 261.735 63.52C261.415 63.2 261.255 62.8053 261.255 62.336V41.952H247.559V62.336C247.559 62.8053 247.399 63.2 247.079 63.52C246.781 63.84 246.386 64 245.895 64ZM278.597 64.128C276.869 64.128 275.344 63.7547 274.021 63.008C272.699 62.24 271.653 61.1947 270.885 59.872C270.139 58.528 269.765 56.992 269.765 55.264C269.765 53.5147 270.139 51.9787 270.885 50.656C271.653 49.312 272.699 48.2667 274.021 47.52C275.344 46.752 276.869 46.368 278.597 46.368C280.304 46.368 281.819 46.752 283.141 47.52C284.464 48.2667 285.499 49.312 286.245 50.656C287.013 51.9787 287.397 53.5147 287.397 55.264C287.397 56.992 287.024 58.528 286.277 59.872C285.531 61.1947 284.496 62.24 283.173 63.008C281.851 63.7547 280.325 64.128 278.597 64.128ZM278.597 61.248C279.707 61.248 280.688 60.992 281.541 60.48C282.395 59.968 283.056 59.264 283.525 58.368C284.016 57.472 284.261 56.4373 284.261 55.264C284.261 54.0907 284.016 53.056 283.525 52.16C283.056 51.2427 282.395 50.528 281.541 50.016C280.688 49.504 279.707 49.248 278.597 49.248C277.488 49.248 276.507 49.504 275.653 50.016C274.8 50.528 274.128 51.2427 273.637 52.16C273.147 53.056 272.901 54.0907 272.901 55.264C272.901 56.4373 273.147 57.472 273.637 58.368C274.128 59.264 274.8 59.968 275.653 60.48C276.507 60.992 277.488 61.248 278.597 61.248ZM299.551 64.128C297.951 64.128 296.532 63.7547 295.295 63.008C294.079 62.24 293.119 61.1947 292.415 59.872C291.711 58.528 291.359 56.992 291.359 55.264C291.359 53.5147 291.732 51.9787 292.479 50.656C293.247 49.312 294.292 48.2667 295.615 47.52C296.938 46.752 298.463 46.368 300.191 46.368C301.898 46.368 303.412 46.752 304.735 47.52C306.058 48.2667 307.092 49.312 307.839 50.656C308.607 51.9787 308.991 53.5147 308.991 55.264H307.103C307.103 56.992 306.772 58.528 306.111 59.872C305.471 61.1947 304.586 62.24 303.455 63.008C302.324 63.7547 301.023 64.128 299.551 64.128ZM300.127 71.264C298.612 71.264 297.194 70.9653 295.871 70.368C294.548 69.7707 293.428 68.896 292.511 67.744C292.234 67.3813 292.127 67.008 292.191 66.624C292.276 66.24 292.49 65.9307 292.831 65.696C293.215 65.44 293.61 65.3547 294.015 65.44C294.442 65.5253 294.783 65.7387 295.039 66.08C295.615 66.8053 296.34 67.3707 297.215 67.776C298.09 68.1813 299.082 68.384 300.191 68.384C301.215 68.384 302.154 68.1387 303.007 67.648C303.882 67.1573 304.575 66.432 305.087 65.472C305.599 64.512 305.855 63.3387 305.855 61.952V57.408L306.911 54.592L308.991 55.264V62.176C308.991 63.8613 308.618 65.3867 307.871 66.752C307.124 68.1387 306.079 69.2373 304.735 70.048C303.412 70.8587 301.876 71.264 300.127 71.264ZM300.191 61.248C301.3 61.248 302.282 60.992 303.135 60.48C303.988 59.968 304.65 59.264 305.119 58.368C305.61 57.472 305.855 56.4373 305.855 55.264C305.855 54.0907 305.61 53.056 305.119 52.16C304.65 51.2427 303.988 50.528 303.135 50.016C302.282 49.504 301.3 49.248 300.191 49.248C299.082 49.248 298.1 49.504 297.247 50.016C296.394 50.528 295.722 51.2427 295.231 52.16C294.74 53.056 294.495 54.0907 294.495 55.264C294.495 56.4373 294.74 57.472 295.231 58.368C295.722 59.264 296.394 59.968 297.247 60.48C298.1 60.992 299.082 61.248 300.191 61.248ZM328.633 64.032C328.163 64.032 327.769 63.8827 327.449 63.584C327.15 63.264 327.001 62.8693 327.001 62.4V54.528C327.001 53.312 326.777 52.32 326.329 51.552C325.881 50.784 325.273 50.2187 324.505 49.856C323.758 49.472 322.894 49.28 321.913 49.28C321.017 49.28 320.206 49.4613 319.481 49.824C318.755 50.1867 318.179 50.6773 317.753 51.296C317.326 51.8933 317.113 52.5867 317.113 53.376H315.097C315.097 52.032 315.417 50.8373 316.057 49.792C316.718 48.7253 317.614 47.8827 318.745 47.264C319.875 46.6453 321.145 46.336 322.553 46.336C324.025 46.336 325.337 46.656 326.489 47.296C327.662 47.9147 328.579 48.832 329.241 50.048C329.923 51.264 330.265 52.7573 330.265 54.528V62.4C330.265 62.8693 330.105 63.264 329.785 63.584C329.486 63.8827 329.102 64.032 328.633 64.032ZM315.481 64.032C315.011 64.032 314.617 63.8827 314.297 63.584C313.998 63.264 313.849 62.8693 313.849 62.4V48.128C313.849 47.6373 313.998 47.2427 314.297 46.944C314.617 46.6453 315.011 46.496 315.481 46.496C315.971 46.496 316.366 46.6453 316.665 46.944C316.963 47.2427 317.113 47.6373 317.113 48.128V62.4C317.113 62.8693 316.963 63.264 316.665 63.584C316.366 63.8827 315.971 64.032 315.481 64.032ZM343.021 64.16C341.549 64.16 340.227 63.8507 339.053 63.232C337.901 62.592 336.984 61.664 336.301 60.448C335.64 59.232 335.309 57.7387 335.309 55.968V48.096C335.309 47.6267 335.459 47.2427 335.757 46.944C336.077 46.624 336.472 46.464 336.941 46.464C337.411 46.464 337.795 46.624 338.093 46.944C338.413 47.2427 338.573 47.6267 338.573 48.096V55.968C338.573 57.1627 338.797 58.1547 339.245 58.944C339.693 59.712 340.301 60.288 341.069 60.672C341.837 61.0347 342.701 61.216 343.661 61.216C344.579 61.216 345.389 61.0347 346.093 60.672C346.819 60.3093 347.395 59.8187 347.821 59.2C348.248 58.5813 348.461 57.888 348.461 57.12H350.477C350.477 58.4427 350.147 59.6373 349.485 60.704C348.845 61.7707 347.96 62.6133 346.829 63.232C345.72 63.8507 344.451 64.16 343.021 64.16ZM350.093 64C349.624 64 349.229 63.8507 348.909 63.552C348.611 63.232 348.461 62.8373 348.461 62.368V48.096C348.461 47.6053 348.611 47.2107 348.909 46.912C349.229 46.6133 349.624 46.464 350.093 46.464C350.584 46.464 350.979 46.6133 351.277 46.912C351.576 47.2107 351.725 47.6053 351.725 48.096V62.368C351.725 62.8373 351.576 63.232 351.277 63.552C350.979 63.8507 350.584 64 350.093 64ZM365.41 64.128C363.703 64.128 362.178 63.744 360.834 62.976C359.511 62.1867 358.466 61.1307 357.698 59.808C356.951 58.464 356.578 56.9493 356.578 55.264C356.578 53.536 356.951 52 357.698 50.656C358.444 49.312 359.468 48.2667 360.77 47.52C362.071 46.752 363.564 46.368 365.25 46.368C366.508 46.368 367.66 46.6133 368.706 47.104C369.751 47.5733 370.69 48.288 371.522 49.248C371.82 49.5893 371.927 49.9413 371.842 50.304C371.756 50.6667 371.522 50.9867 371.138 51.264C370.839 51.4773 370.508 51.552 370.146 51.488C369.783 51.4027 369.452 51.2107 369.154 50.912C368.108 49.8027 366.807 49.248 365.25 49.248C364.162 49.248 363.202 49.504 362.37 50.016C361.538 50.5067 360.887 51.2 360.418 52.096C359.948 52.992 359.714 54.048 359.714 55.264C359.714 56.416 359.948 57.44 360.418 58.336C360.908 59.232 361.58 59.9467 362.434 60.48C363.287 60.992 364.279 61.248 365.41 61.248C366.156 61.248 366.807 61.1627 367.362 60.992C367.938 60.8 368.46 60.512 368.93 60.128C369.271 59.8507 369.623 59.7013 369.986 59.68C370.348 59.6373 370.668 59.7333 370.946 59.968C371.308 60.2667 371.511 60.608 371.554 60.992C371.596 61.3547 371.468 61.6853 371.17 61.984C369.634 63.4133 367.714 64.128 365.41 64.128ZM382.005 58.752C380.469 58.752 379.199 58.4 378.197 57.696C377.194 56.992 376.447 56.032 375.957 54.816C375.487 53.5787 375.253 52.16 375.253 50.56V48.128C375.253 47.6373 375.402 47.2427 375.701 46.944C376.021 46.6453 376.415 46.496 376.885 46.496C377.375 46.496 377.77 46.6453 378.069 46.944C378.367 47.2427 378.516 47.6373 378.516 48.128V50.56C378.516 52.096 378.815 53.3547 379.413 54.336C380.031 55.3173 381.109 55.808 382.645 55.808C383.861 55.808 384.853 55.6053 385.621 55.2C386.41 54.7947 386.805 54.272 386.805 53.632H388.501C388.501 54.6347 388.223 55.52 387.669 56.288C387.114 57.056 386.346 57.664 385.365 58.112C384.405 58.5387 383.285 58.752 382.005 58.752ZM388.437 64C387.967 64 387.573 63.8507 387.253 63.552C386.954 63.232 386.805 62.8373 386.805 62.368V48.128C386.805 47.6373 386.954 47.2427 387.253 46.944C387.573 46.6453 387.967 46.496 388.437 46.496C388.927 46.496 389.322 46.6453 389.621 46.944C389.919 47.2427 390.069 47.6373 390.069 48.128V62.368C390.069 62.8373 389.919 63.232 389.621 63.552C389.322 63.8507 388.927 64 388.437 64ZM403.178 64.16C401.706 64.16 400.383 63.8507 399.21 63.232C398.058 62.592 397.14 61.664 396.458 60.448C395.796 59.232 395.466 57.7387 395.466 55.968V48.096C395.466 47.6267 395.615 47.2427 395.914 46.944C396.234 46.624 396.628 46.464 397.098 46.464C397.567 46.464 397.951 46.624 398.25 46.944C398.57 47.2427 398.73 47.6267 398.73 48.096V55.968C398.73 57.1627 398.954 58.1547 399.402 58.944C399.85 59.712 400.458 60.288 401.226 60.672C401.994 61.0347 402.858 61.216 403.818 61.216C404.735 61.216 405.546 61.0347 406.25 60.672C406.975 60.3093 407.551 59.8187 407.978 59.2C408.404 58.5813 408.618 57.888 408.618 57.12H410.634C410.634 58.4427 410.303 59.6373 409.642 60.704C409.002 61.7707 408.116 62.6133 406.986 63.232C405.876 63.8507 404.607 64.16 403.178 64.16ZM410.25 64C409.78 64 409.386 63.8507 409.066 63.552C408.767 63.232 408.618 62.8373 408.618 62.368V48.096C408.618 47.6053 408.767 47.2107 409.066 46.912C409.386 46.6133 409.78 46.464 410.25 46.464C410.74 46.464 411.135 46.6133 411.434 46.912C411.732 47.2107 411.882 47.6053 411.882 48.096V62.368C411.882 62.8373 411.732 63.232 411.434 63.552C411.135 63.8507 410.74 64 410.25 64ZM431.838 63.616C431.561 63.872 431.166 64 430.654 64C430.163 63.9787 429.779 63.8293 429.502 63.552L421.726 55.2L429.054 47.008C429.331 46.7093 429.715 46.5387 430.206 46.496C430.718 46.4533 431.113 46.56 431.39 46.816C431.71 47.1147 431.891 47.456 431.934 47.84C431.977 48.2027 431.859 48.5333 431.582 48.832L425.79 55.04L431.934 61.632C432.211 61.9093 432.35 62.24 432.35 62.624C432.35 62.9867 432.179 63.3173 431.838 63.616ZM419.166 64.032C418.697 64.032 418.323 63.8827 418.046 63.584C417.769 63.264 417.63 62.8693 417.63 62.4V48.128C417.63 47.6373 417.769 47.2427 418.046 46.944C418.323 46.6453 418.697 46.496 419.166 46.496C419.657 46.496 420.051 46.6453 420.35 46.944C420.67 47.2427 420.83 47.6373 420.83 48.128V53.472H424.926V56.48H420.83V62.4C420.83 62.8693 420.67 63.264 420.35 63.584C420.051 63.8827 419.657 64.032 419.166 64.032ZM442.691 64.128C440.963 64.128 439.438 63.7547 438.115 63.008C436.792 62.24 435.747 61.1947 434.979 59.872C434.232 58.528 433.859 56.992 433.859 55.264C433.859 53.5147 434.232 51.9787 434.979 50.656C435.747 49.312 436.792 48.2667 438.115 47.52C439.438 46.752 440.963 46.368 442.691 46.368C444.398 46.368 445.912 46.752 447.235 47.52C448.558 48.2667 449.592 49.312 450.339 50.656C451.107 51.9787 451.491 53.5147 451.491 55.264C451.491 56.992 451.118 58.528 450.371 59.872C449.624 61.1947 448.59 62.24 447.267 63.008C445.944 63.7547 444.419 64.128 442.691 64.128ZM442.691 61.248C443.8 61.248 444.782 60.992 445.635 60.48C446.488 59.968 447.15 59.264 447.619 58.368C448.11 57.472 448.355 56.4373 448.355 55.264C448.355 54.0907 448.11 53.056 447.619 52.16C447.15 51.2427 446.488 50.528 445.635 50.016C444.782 49.504 443.8 49.248 442.691 49.248C441.582 49.248 440.6 49.504 439.747 50.016C438.894 50.528 438.222 51.2427 437.731 52.16C437.24 53.056 436.995 54.0907 436.995 55.264C436.995 56.4373 437.24 57.472 437.731 58.368C438.222 59.264 438.894 59.968 439.747 60.48C440.6 60.992 441.582 61.248 442.691 61.248ZM457.981 64C457.511 64 457.117 63.8507 456.797 63.552C456.498 63.232 456.349 62.8373 456.349 62.368V48.096C456.391 47.6267 456.562 47.2427 456.861 46.944C457.159 46.6453 457.533 46.496 457.981 46.496C458.471 46.496 458.866 46.6453 459.165 46.944C459.463 47.2427 459.613 47.6373 459.613 48.128V53.632H465.821V54.272C466.994 54.272 468.029 54.4747 468.925 54.88C469.842 55.2853 470.557 55.8507 471.069 56.576C471.581 57.28 471.837 58.1013 471.837 59.04C471.837 60 471.581 60.8533 471.069 61.6C470.557 62.3467 469.842 62.9333 468.925 63.36C468.029 63.7867 466.994 64 465.821 64H457.981ZM459.613 60.96H465.821C466.674 60.96 467.367 60.7573 467.901 60.352C468.434 59.9253 468.701 59.3813 468.701 58.72C468.701 58.016 468.434 57.44 467.901 56.992C467.367 56.544 466.674 56.32 465.821 56.32H459.613V60.96ZM463.293 55.36V53.632H466.333C466.866 53.632 467.303 53.4293 467.645 53.024C467.986 52.5973 468.157 52.064 468.157 51.424C468.157 50.8693 467.954 50.4107 467.549 50.048C467.143 49.6853 466.631 49.504 466.013 49.504H458.013V46.496H466.013C467.015 46.496 467.901 46.6987 468.669 47.104C469.458 47.488 470.077 48.032 470.525 48.736C470.973 49.4187 471.197 50.208 471.197 51.104C471.197 52.3413 470.727 53.3653 469.789 54.176C468.871 54.9653 467.719 55.36 466.333 55.36H463.293Z" fill="#211714"/>
<path d="M110.498 28C108.877 28 107.49 27.5093 106.338 26.528C105.207 25.5253 104.343 24.096 103.746 22.24C103.149 20.3627 102.85 18.112 102.85 15.488C102.85 12.864 103.149 10.624 103.746 8.768C104.343 6.89067 105.207 5.46133 106.338 4.48C107.49 3.47733 108.877 2.976 110.498 2.976C112.119 2.976 113.495 3.488 114.626 4.512C115.778 5.51467 116.653 6.95467 117.25 8.832C117.847 10.688 118.146 12.9067 118.146 15.488C118.146 18.0693 117.847 20.2987 117.25 22.176C116.653 24.032 115.778 25.472 114.626 26.496C113.495 27.4987 112.119 28 110.498 28ZM110.498 24.672C111.479 24.672 112.29 24.2773 112.93 23.488C113.57 22.6773 114.05 21.5787 114.37 20.192C114.69 18.8053 114.85 17.2373 114.85 15.488C114.85 13.7387 114.69 12.1707 114.37 10.784C114.05 9.39733 113.57 8.29867 112.93 7.488C112.29 6.67733 111.479 6.272 110.498 6.272C109.517 6.272 108.706 6.67733 108.066 7.488C107.426 8.27733 106.946 9.36533 106.626 10.752C106.306 12.1387 106.146 13.7173 106.146 15.488C106.146 17.2587 106.306 18.8373 106.626 20.224C106.946 21.6107 107.426 22.6987 108.066 23.488C108.727 24.2773 109.538 24.672 110.498 24.672ZM58.1739 64.32C56.2965 64.32 54.5792 64.0107 53.0219 63.392C51.4645 62.752 50.1205 61.8667 48.9899 60.736C47.8805 59.584 47.0165 58.2293 46.3979 56.672C45.7792 55.0933 45.4699 53.3653 45.4699 51.488C45.4699 49.6107 45.7792 47.8933 46.3979 46.336C47.0165 44.7787 47.8805 43.4347 48.9899 42.304C50.1205 41.152 51.4645 40.2667 53.0219 39.648C54.5792 39.008 56.2965 38.688 58.1739 38.688C60.0512 38.688 61.7579 39.008 63.2939 39.648C64.8512 40.2667 66.1952 41.152 67.3259 42.304C68.4565 43.4347 69.3312 44.7787 69.9499 46.336C70.5685 47.8933 70.8779 49.6107 70.8779 51.488C70.8779 53.3653 70.5685 55.0933 69.9499 56.672C69.3312 58.2293 68.4565 59.584 67.3259 60.736C66.1952 61.8667 64.8512 62.752 63.2939 63.392C61.7579 64.0107 60.0512 64.32 58.1739 64.32ZM58.1739 61.312C59.5605 61.312 60.8299 61.0667 61.9819 60.576C63.1552 60.064 64.1685 59.3707 65.0219 58.496C65.8752 57.6 66.5259 56.5547 66.9739 55.36C67.4432 54.1653 67.6779 52.8747 67.6779 51.488C67.6779 50.1013 67.4432 48.8107 66.9739 47.616C66.5259 46.4213 65.8752 45.3867 65.0219 44.512C64.1685 43.616 63.1552 42.9227 61.9819 42.432C60.8299 41.9413 59.5605 41.696 58.1739 41.696C56.7872 41.696 55.5072 41.9413 54.3339 42.432C53.1819 42.9227 52.1792 43.616 51.3259 44.512C50.4939 45.3867 49.8432 46.4213 49.3739 47.616C48.9045 48.8107 48.6699 50.1013 48.6699 51.488C48.6699 52.8747 48.9045 54.1653 49.3739 55.36C49.8432 56.5547 50.4939 57.6 51.3259 58.496C52.1792 59.3707 53.1819 60.064 54.3339 60.576C55.5072 61.0667 56.7872 61.312 58.1739 61.312ZM83.1306 64.16C81.6373 64.16 80.304 63.808 79.1306 63.104C77.9786 62.4 77.072 61.44 76.4106 60.224C75.7493 58.9867 75.4186 57.568 75.4186 55.968V48.096C75.4186 47.6053 75.568 47.2107 75.8666 46.912C76.1866 46.6133 76.5813 46.464 77.0506 46.464C77.5413 46.464 77.936 46.6133 78.2346 46.912C78.5333 47.2107 78.6826 47.6053 78.6826 48.096V55.968C78.6826 56.992 78.896 57.8987 79.3226 58.688C79.7706 59.4773 80.3786 60.096 81.1466 60.544C81.9146 60.992 82.7893 61.216 83.7706 61.216C84.7093 61.216 85.5413 61.0453 86.2666 60.704C86.992 60.3413 87.5573 59.8507 87.9626 59.232C88.368 58.6133 88.5706 57.9093 88.5706 57.12H90.2666C90.2666 58.4853 89.9573 59.7013 89.3386 60.768C88.7413 61.8347 87.9093 62.6667 86.8426 63.264C85.776 63.8613 84.5386 64.16 83.1306 64.16ZM93.4026 69.696C92.9546 69.696 92.5813 69.536 92.2826 69.216C91.984 68.896 91.8346 68.5013 91.8346 68.032V64H91.3546C90.3946 64 89.6906 63.776 89.2426 63.328C88.7946 62.88 88.5706 62.176 88.5706 61.216V48.096C88.5706 47.6053 88.72 47.2107 89.0186 46.912C89.3386 46.6133 89.7333 46.464 90.2026 46.464C90.6933 46.464 91.088 46.6133 91.3866 46.912C91.6853 47.2107 91.8346 47.6053 91.8346 48.096V61.248H93.1786C93.6693 61.248 94.064 61.408 94.3626 61.728C94.6826 62.0267 94.8426 62.4213 94.8426 62.912V68.032C94.8426 68.5013 94.704 68.896 94.4266 69.216C94.1706 69.536 93.8293 69.696 93.4026 69.696ZM106.432 64.128C104.661 64.128 103.083 63.7547 101.696 63.008C100.331 62.24 99.2535 61.1947 98.4641 59.872C97.6961 58.528 97.3121 56.992 97.3121 55.264C97.3121 53.5147 97.6748 51.9787 98.4001 50.656C99.1468 49.312 100.171 48.2667 101.472 47.52C102.773 46.752 104.267 46.368 105.952 46.368C107.616 46.368 109.045 46.7413 110.24 47.488C111.435 48.2133 112.341 49.2267 112.96 50.528C113.6 51.808 113.92 53.2907 113.92 54.976C113.92 55.3813 113.781 55.7227 113.504 56C113.227 56.256 112.875 56.384 112.448 56.384H99.5521V53.824H112.352L111.04 54.72C111.019 53.6533 110.805 52.704 110.4 51.872C109.995 51.0187 109.419 50.3467 108.672 49.856C107.925 49.3653 107.019 49.12 105.952 49.12C104.736 49.12 103.691 49.3867 102.816 49.92C101.963 50.4533 101.312 51.1893 100.864 52.128C100.416 53.0453 100.192 54.0907 100.192 55.264C100.192 56.4373 100.459 57.4827 100.992 58.4C101.525 59.3173 102.261 60.0427 103.2 60.576C104.139 61.1093 105.216 61.376 106.432 61.376C107.093 61.376 107.765 61.2587 108.448 61.024C109.152 60.768 109.717 60.48 110.144 60.16C110.464 59.9253 110.805 59.808 111.168 59.808C111.552 59.7867 111.883 59.8933 112.16 60.128C112.523 60.448 112.715 60.8 112.736 61.184C112.757 61.568 112.587 61.8987 112.224 62.176C111.499 62.752 110.592 63.2213 109.504 63.584C108.437 63.9467 107.413 64.128 106.432 64.128ZM132.803 64C132.334 64 131.939 63.8507 131.619 63.552C131.32 63.232 131.171 62.8373 131.171 62.368V48.128C131.171 47.6373 131.32 47.2427 131.619 46.944C131.939 46.6453 132.334 46.496 132.803 46.496C133.294 46.496 133.678 46.6453 133.955 46.944C134.232 47.2427 134.371 47.6373 134.371 48.128V62.368C134.371 62.8373 134.232 63.232 133.955 63.552C133.678 63.8507 133.294 64 132.803 64ZM119.651 64C119.182 64 118.798 63.8507 118.499 63.552C118.222 63.232 118.083 62.8373 118.083 62.368V48.128C118.083 47.6373 118.222 47.2427 118.499 46.944C118.798 46.6453 119.182 46.496 119.651 46.496C120.142 46.496 120.536 46.6453 120.835 46.944C121.134 47.2427 121.283 47.6373 121.283 48.128V62.368C121.283 62.8373 121.134 63.232 120.835 63.552C120.536 63.8507 120.142 64 119.651 64ZM120.867 56.352V53.472H132.099V56.352H120.867ZM148.082 64.128C146.354 64.128 144.828 63.7547 143.506 63.008C142.183 62.24 141.138 61.1947 140.37 59.872C139.623 58.528 139.25 56.992 139.25 55.264C139.25 53.5147 139.623 51.9787 140.37 50.656C141.138 49.312 142.183 48.2667 143.506 47.52C144.828 46.752 146.354 46.368 148.082 46.368C149.788 46.368 151.303 46.752 152.626 47.52C153.948 48.2667 154.983 49.312 155.73 50.656C156.498 51.9787 156.882 53.5147 156.882 55.264C156.882 56.992 156.508 58.528 155.762 59.872C155.015 61.1947 153.98 62.24 152.658 63.008C151.335 63.7547 149.81 64.128 148.082 64.128ZM148.082 61.248C149.191 61.248 150.172 60.992 151.026 60.48C151.879 59.968 152.54 59.264 153.01 58.368C153.5 57.472 153.746 56.4373 153.746 55.264C153.746 54.0907 153.5 53.056 153.01 52.16C152.54 51.2427 151.879 50.528 151.026 50.016C150.172 49.504 149.191 49.248 148.082 49.248C146.972 49.248 145.991 49.504 145.138 50.016C144.284 50.528 143.612 51.2427 143.122 52.16C142.631 53.056 142.386 54.0907 142.386 55.264C142.386 56.4373 142.631 57.472 143.122 58.368C143.612 59.264 144.284 59.968 145.138 60.48C145.991 60.992 146.972 61.248 148.082 61.248ZM175.947 63.616C175.67 63.872 175.275 64 174.763 64C174.273 63.9787 173.889 63.8293 173.611 63.552L165.835 55.2L173.163 47.008C173.441 46.7093 173.825 46.5387 174.315 46.496C174.827 46.4533 175.222 46.56 175.499 46.816C175.819 47.1147 176.001 47.456 176.043 47.84C176.086 48.2027 175.969 48.5333 175.691 48.832L169.899 55.04L176.043 61.632C176.321 61.9093 176.459 62.24 176.459 62.624C176.459 62.9867 176.289 63.3173 175.947 63.616ZM163.275 64.032C162.806 64.032 162.433 63.8827 162.155 63.584C161.878 63.264 161.739 62.8693 161.739 62.4V48.128C161.739 47.6373 161.878 47.2427 162.155 46.944C162.433 46.6453 162.806 46.496 163.275 46.496C163.766 46.496 164.161 46.6453 164.459 46.944C164.779 47.2427 164.939 47.6373 164.939 48.128V53.472H169.035V56.48H164.939V62.4C164.939 62.8693 164.779 63.264 164.459 63.584C164.161 63.8827 163.766 64.032 163.275 64.032Z" fill="#211714"/>
<path d="M587.069 2.976C588.563 2.976 589.875 3.30666 591.005 3.968C592.136 4.608 593.021 5.504 593.661 6.656C594.301 7.78667 594.621 9.088 594.621 10.56C594.621 12.032 594.301 13.344 593.661 14.496C593.021 15.648 592.136 16.5547 591.005 17.216C589.875 17.856 588.563 18.176 587.069 18.176C585.619 18.176 584.317 17.856 583.165 17.216C582.035 16.5547 581.149 15.648 580.509 14.496C579.869 13.344 579.549 12.032 579.549 10.56C579.549 9.088 579.869 7.78667 580.509 6.656C581.149 5.504 582.035 4.608 583.165 3.968C584.296 3.30666 585.597 2.976 587.069 2.976ZM587.101 5.856C586.227 5.856 585.448 6.05867 584.765 6.464C584.104 6.848 583.581 7.392 583.197 8.096C582.813 8.8 582.621 9.62133 582.621 10.56C582.621 11.4773 582.813 12.2987 583.197 13.024C583.581 13.728 584.104 14.2827 584.765 14.688C585.448 15.0933 586.227 15.296 587.101 15.296C587.976 15.296 588.744 15.0933 589.405 14.688C590.088 14.2827 590.611 13.728 590.973 13.024C591.357 12.2987 591.549 11.4773 591.549 10.56C591.549 9.62133 591.357 8.8 590.973 8.096C590.611 7.392 590.088 6.848 589.405 6.464C588.744 6.05867 587.976 5.856 587.101 5.856ZM593.565 14.656L586.141 27.04C585.757 27.6373 585.267 27.936 584.669 27.936C584.243 27.936 583.869 27.808 583.549 27.552C583.251 27.296 583.059 26.976 582.973 26.592C582.909 26.1867 582.995 25.8027 583.229 25.44L587.773 17.888L593.565 14.656ZM605.663 2.976C607.156 2.976 608.468 3.30666 609.599 3.968C610.73 4.608 611.615 5.504 612.255 6.656C612.895 7.78667 613.215 9.088 613.215 10.56C613.215 12.032 612.895 13.344 612.255 14.496C611.615 15.648 610.73 16.5547 609.599 17.216C608.468 17.856 607.156 18.176 605.663 18.176C604.212 18.176 602.911 17.856 601.759 17.216C600.628 16.5547 599.743 15.648 599.103 14.496C598.463 13.344 598.143 12.032 598.143 10.56C598.143 9.088 598.463 7.78667 599.103 6.656C599.743 5.504 600.628 4.608 601.759 3.968C602.89 3.30666 604.191 2.976 605.663 2.976ZM605.695 5.856C604.82 5.856 604.042 6.05867 603.359 6.464C602.698 6.848 602.175 7.392 601.791 8.096C601.407 8.8 601.215 9.62133 601.215 10.56C601.215 11.4773 601.407 12.2987 601.791 13.024C602.175 13.728 602.698 14.2827 603.359 14.688C604.042 15.0933 604.82 15.296 605.695 15.296C606.57 15.296 607.338 15.0933 607.999 14.688C608.682 14.2827 609.204 13.728 609.567 13.024C609.951 12.2987 610.143 11.4773 610.143 10.56C610.143 9.62133 609.951 8.8 609.567 8.096C609.204 7.392 608.682 6.848 607.999 6.464C607.338 6.05867 606.57 5.856 605.695 5.856ZM612.159 14.656L604.735 27.04C604.351 27.6373 603.86 27.936 603.263 27.936C602.836 27.936 602.463 27.808 602.143 27.552C601.844 27.296 601.652 26.976 601.567 26.592C601.503 26.1867 601.588 25.8027 601.823 25.44L606.367 17.888L612.159 14.656ZM624.257 2.976C625.75 2.976 627.062 3.30666 628.193 3.968C629.324 4.608 630.209 5.504 630.849 6.656C631.489 7.78667 631.809 9.088 631.809 10.56C631.809 12.032 631.489 13.344 630.849 14.496C630.209 15.648 629.324 16.5547 628.193 17.216C627.062 17.856 625.75 18.176 624.257 18.176C622.806 18.176 621.505 17.856 620.353 17.216C619.222 16.5547 618.337 15.648 617.697 14.496C617.057 13.344 616.737 12.032 616.737 10.56C616.737 9.088 617.057 7.78667 617.697 6.656C618.337 5.504 619.222 4.608 620.353 3.968C621.484 3.30666 622.785 2.976 624.257 2.976ZM624.289 5.856C623.414 5.856 622.636 6.05867 621.953 6.464C621.292 6.848 620.769 7.392 620.385 8.096C620.001 8.8 619.809 9.62133 619.809 10.56C619.809 11.4773 620.001 12.2987 620.385 13.024C620.769 13.728 621.292 14.2827 621.953 14.688C622.636 15.0933 623.414 15.296 624.289 15.296C625.164 15.296 625.932 15.0933 626.593 14.688C627.276 14.2827 627.798 13.728 628.161 13.024C628.545 12.2987 628.737 11.4773 628.737 10.56C628.737 9.62133 628.545 8.8 628.161 8.096C627.798 7.392 627.276 6.848 626.593 6.464C625.932 6.05867 625.164 5.856 624.289 5.856ZM630.753 14.656L623.329 27.04C622.945 27.6373 622.454 27.936 621.857 27.936C621.43 27.936 621.057 27.808 620.737 27.552C620.438 27.296 620.246 26.976 620.161 26.592C620.097 26.1867 620.182 25.8027 620.417 25.44L624.961 17.888L630.753 14.656ZM524.317 64C523.848 64 523.453 63.84 523.133 63.52C522.813 63.2 522.653 62.8053 522.653 62.336V40.672C522.653 40.1813 522.813 39.7867 523.133 39.488C523.453 39.168 523.848 39.008 524.317 39.008H541.341C541.832 39.008 542.226 39.168 542.525 39.488C542.845 39.7867 543.005 40.1813 543.005 40.672V62.336C543.005 62.8053 542.845 63.2 542.525 63.52C542.226 63.84 541.832 64 541.341 64C540.872 64 540.477 63.84 540.157 63.52C539.837 63.2 539.677 62.8053 539.677 62.336V41.952H525.981V62.336C525.981 62.8053 525.821 63.2 525.501 63.52C525.202 63.84 524.808 64 524.317 64ZM557.019 64.128C555.291 64.128 553.766 63.7547 552.443 63.008C551.12 62.24 550.075 61.1947 549.307 59.872C548.56 58.528 548.187 56.992 548.187 55.264C548.187 53.5147 548.56 51.9787 549.307 50.656C550.075 49.312 551.12 48.2667 552.443 47.52C553.766 46.752 555.291 46.368 557.019 46.368C558.726 46.368 560.24 46.752 561.563 47.52C562.886 48.2667 563.92 49.312 564.667 50.656C565.435 51.9787 565.819 53.5147 565.819 55.264C565.819 56.992 565.446 58.528 564.699 59.872C563.952 61.1947 562.918 62.24 561.595 63.008C560.272 63.7547 558.747 64.128 557.019 64.128ZM557.019 61.248C558.128 61.248 559.11 60.992 559.963 60.48C560.816 59.968 561.478 59.264 561.947 58.368C562.438 57.472 562.683 56.4373 562.683 55.264C562.683 54.0907 562.438 53.056 561.947 52.16C561.478 51.2427 560.816 50.528 559.963 50.016C559.11 49.504 558.128 49.248 557.019 49.248C555.91 49.248 554.928 49.504 554.075 50.016C553.222 50.528 552.55 51.2427 552.059 52.16C551.568 53.056 551.323 54.0907 551.323 55.264C551.323 56.4373 551.568 57.472 552.059 58.368C552.55 59.264 553.222 59.968 554.075 60.48C554.928 60.992 555.91 61.248 557.019 61.248ZM577.973 64.128C576.373 64.128 574.954 63.7547 573.717 63.008C572.501 62.24 571.541 61.1947 570.837 59.872C570.133 58.528 569.781 56.992 569.781 55.264C569.781 53.5147 570.154 51.9787 570.901 50.656C571.669 49.312 572.714 48.2667 574.037 47.52C575.36 46.752 576.885 46.368 578.613 46.368C580.32 46.368 581.834 46.752 583.157 47.52C584.48 48.2667 585.514 49.312 586.261 50.656C587.029 51.9787 587.413 53.5147 587.413 55.264H585.525C585.525 56.992 585.194 58.528 584.533 59.872C583.893 61.1947 583.008 62.24 581.877 63.008C580.746 63.7547 579.445 64.128 577.973 64.128ZM578.549 71.264C577.034 71.264 575.616 70.9653 574.293 70.368C572.97 69.7707 571.85 68.896 570.933 67.744C570.656 67.3813 570.549 67.008 570.613 66.624C570.698 66.24 570.912 65.9307 571.253 65.696C571.637 65.44 572.032 65.3547 572.437 65.44C572.864 65.5253 573.205 65.7387 573.461 66.08C574.037 66.8053 574.762 67.3707 575.637 67.776C576.512 68.1813 577.504 68.384 578.613 68.384C579.637 68.384 580.576 68.1387 581.429 67.648C582.304 67.1573 582.997 66.432 583.509 65.472C584.021 64.512 584.277 63.3387 584.277 61.952V57.408L585.333 54.592L587.413 55.264V62.176C587.413 63.8613 587.04 65.3867 586.293 66.752C585.546 68.1387 584.501 69.2373 583.157 70.048C581.834 70.8587 580.298 71.264 578.549 71.264ZM578.613 61.248C579.722 61.248 580.704 60.992 581.557 60.48C582.41 59.968 583.072 59.264 583.541 58.368C584.032 57.472 584.277 56.4373 584.277 55.264C584.277 54.0907 584.032 53.056 583.541 52.16C583.072 51.2427 582.41 50.528 581.557 50.016C580.704 49.504 579.722 49.248 578.613 49.248C577.504 49.248 576.522 49.504 575.669 50.016C574.816 50.528 574.144 51.2427 573.653 52.16C573.162 53.056 572.917 54.0907 572.917 55.264C572.917 56.4373 573.162 57.472 573.653 58.368C574.144 59.264 574.816 59.968 575.669 60.48C576.522 60.992 577.504 61.248 578.613 61.248ZM607.055 64.032C606.585 64.032 606.191 63.8827 605.871 63.584C605.572 63.264 605.423 62.8693 605.423 62.4V54.528C605.423 53.312 605.199 52.32 604.751 51.552C604.303 50.784 603.695 50.2187 602.927 49.856C602.18 49.472 601.316 49.28 600.335 49.28C599.439 49.28 598.628 49.4613 597.903 49.824C597.177 50.1867 596.601 50.6773 596.175 51.296C595.748 51.8933 595.535 52.5867 595.535 53.376H593.519C593.519 52.032 593.839 50.8373 594.479 49.792C595.14 48.7253 596.036 47.8827 597.167 47.264C598.297 46.6453 599.567 46.336 600.975 46.336C602.447 46.336 603.759 46.656 604.911 47.296C606.084 47.9147 607.001 48.832 607.663 50.048C608.345 51.264 608.687 52.7573 608.687 54.528V62.4C608.687 62.8693 608.527 63.264 608.207 63.584C607.908 63.8827 607.524 64.032 607.055 64.032ZM593.903 64.032C593.433 64.032 593.039 63.8827 592.719 63.584C592.42 63.264 592.271 62.8693 592.271 62.4V48.128C592.271 47.6373 592.42 47.2427 592.719 46.944C593.039 46.6453 593.433 46.496 593.903 46.496C594.393 46.496 594.788 46.6453 595.087 46.944C595.385 47.2427 595.535 47.6373 595.535 48.128V62.4C595.535 62.8693 595.385 63.264 595.087 63.584C594.788 63.8827 594.393 64.032 593.903 64.032ZM621.443 64.16C619.971 64.16 618.648 63.8507 617.475 63.232C616.323 62.592 615.406 61.664 614.723 60.448C614.062 59.232 613.731 57.7387 613.731 55.968V48.096C613.731 47.6267 613.88 47.2427 614.179 46.944C614.499 46.624 614.894 46.464 615.363 46.464C615.832 46.464 616.216 46.624 616.515 46.944C616.835 47.2427 616.995 47.6267 616.995 48.096V55.968C616.995 57.1627 617.219 58.1547 617.667 58.944C618.115 59.712 618.723 60.288 619.491 60.672C620.259 61.0347 621.123 61.216 622.083 61.216C623 61.216 623.811 61.0347 624.515 60.672C625.24 60.3093 625.816 59.8187 626.243 59.2C626.67 58.5813 626.883 57.888 626.883 57.12H628.899C628.899 58.4427 628.568 59.6373 627.907 60.704C627.267 61.7707 626.382 62.6133 625.251 63.232C624.142 63.8507 622.872 64.16 621.443 64.16ZM628.515 64C628.046 64 627.651 63.8507 627.331 63.552C627.032 63.232 626.883 62.8373 626.883 62.368V48.096C626.883 47.6053 627.032 47.2107 627.331 46.912C627.651 46.6133 628.046 46.464 628.515 46.464C629.006 46.464 629.4 46.6133 629.699 46.912C629.998 47.2107 630.147 47.6053 630.147 48.096V62.368C630.147 62.8373 629.998 63.232 629.699 63.552C629.4 63.8507 629.006 64 628.515 64ZM643.832 64.128C642.125 64.128 640.6 63.744 639.256 62.976C637.933 62.1867 636.888 61.1307 636.12 59.808C635.373 58.464 635 56.9493 635 55.264C635 53.536 635.373 52 636.12 50.656C636.866 49.312 637.89 48.2667 639.192 47.52C640.493 46.752 641.986 46.368 643.672 46.368C644.93 46.368 646.082 46.6133 647.128 47.104C648.173 47.5733 649.112 48.288 649.944 49.248C650.242 49.5893 650.349 49.9413 650.264 50.304C650.178 50.6667 649.944 50.9867 649.56 51.264C649.261 51.4773 648.93 51.552 648.568 51.488C648.205 51.4027 647.874 51.2107 647.576 50.912C646.53 49.8027 645.229 49.248 643.672 49.248C642.584 49.248 641.624 49.504 640.792 50.016C639.96 50.5067 639.309 51.2 638.84 52.096C638.37 52.992 638.136 54.048 638.136 55.264C638.136 56.416 638.37 57.44 638.84 58.336C639.33 59.232 640.002 59.9467 640.856 60.48C641.709 60.992 642.701 61.248 643.832 61.248C644.578 61.248 645.229 61.1627 645.784 60.992C646.36 60.8 646.882 60.512 647.352 60.128C647.693 59.8507 648.045 59.7013 648.408 59.68C648.77 59.6373 649.09 59.7333 649.368 59.968C649.73 60.2667 649.933 60.608 649.976 60.992C650.018 61.3547 649.89 61.6853 649.592 61.984C648.056 63.4133 646.136 64.128 643.832 64.128ZM663.05 64.128C661.322 64.128 659.797 63.7547 658.474 63.008C657.152 62.24 656.106 61.1947 655.338 59.872C654.592 58.528 654.218 56.992 654.218 55.264C654.218 53.5147 654.592 51.9787 655.338 50.656C656.106 49.312 657.152 48.2667 658.474 47.52C659.797 46.752 661.322 46.368 663.05 46.368C664.757 46.368 666.272 46.752 667.594 47.52C668.917 48.2667 669.952 49.312 670.698 50.656C671.466 51.9787 671.85 53.5147 671.85 55.264C671.85 56.992 671.477 58.528 670.73 59.872C669.984 61.1947 668.949 62.24 667.626 63.008C666.304 63.7547 664.778 64.128 663.05 64.128ZM663.05 61.248C664.16 61.248 665.141 60.992 665.994 60.48C666.848 59.968 667.509 59.264 667.978 58.368C668.469 57.472 668.714 56.4373 668.714 55.264C668.714 54.0907 668.469 53.056 667.978 52.16C667.509 51.2427 666.848 50.528 665.994 50.016C665.141 49.504 664.16 49.248 663.05 49.248C661.941 49.248 660.96 49.504 660.106 50.016C659.253 50.528 658.581 51.2427 658.09 52.16C657.6 53.056 657.354 54.0907 657.354 55.264C657.354 56.4373 657.6 57.472 658.09 58.368C658.581 59.264 659.253 59.968 660.106 60.48C660.96 60.992 661.941 61.248 663.05 61.248ZM690.916 63.616C690.639 63.872 690.244 64 689.732 64C689.241 63.9787 688.857 63.8293 688.58 63.552L680.804 55.2L688.132 47.008C688.409 46.7093 688.793 46.5387 689.284 46.496C689.796 46.4533 690.191 46.56 690.468 46.816C690.788 47.1147 690.969 47.456 691.012 47.84C691.055 48.2027 690.937 48.5333 690.66 48.832L684.868 55.04L691.012 61.632C691.289 61.9093 691.428 62.24 691.428 62.624C691.428 62.9867 691.257 63.3173 690.916 63.616ZM678.244 64.032C677.775 64.032 677.401 63.8827 677.124 63.584C676.847 63.264 676.708 62.8693 676.708 62.4V48.128C676.708 47.6373 676.847 47.2427 677.124 46.944C677.401 46.6453 677.775 46.496 678.244 46.496C678.735 46.496 679.129 46.6453 679.428 46.944C679.748 47.2427 679.908 47.6373 679.908 48.128V53.472H684.004V56.48H679.908V62.4C679.908 62.8693 679.748 63.264 679.428 63.584C679.129 63.8827 678.735 64.032 678.244 64.032Z" fill="#211714"/>
<rect y="98" width="714" height="120" rx="17" fill="#97A1AB"/>
<path d="M57.7143 174.308L44.5 161.091L48.2344 157.357L57.7143 166.834L77.7603 146.786L81.5 150.525L57.7143 174.308Z" fill="#114477"/>
<path d="M63 123C55.6821 123 48.5285 125.17 42.4439 129.236C36.3593 133.301 31.6169 139.08 28.8165 145.841C26.016 152.602 25.2833 160.041 26.711 167.218C28.1386 174.396 31.6625 180.988 36.8371 186.163C42.0116 191.337 48.6044 194.861 55.7817 196.289C62.959 197.717 70.3984 196.984 77.1593 194.184C83.9202 191.383 89.6988 186.641 93.7644 180.556C97.83 174.471 100 167.318 100 160C100 150.187 96.1018 140.776 89.163 133.837C82.2241 126.898 72.813 123 63 123ZM63 191.714C56.7275 191.714 50.5959 189.854 45.3805 186.369C40.1651 182.885 36.1002 177.932 33.6998 172.137C31.2995 166.341 30.6714 159.965 31.8951 153.813C33.1188 147.661 36.1393 142.01 40.5746 137.575C45.0099 133.139 50.6609 130.119 56.8129 128.895C62.9648 127.671 69.3415 128.299 75.1365 130.7C80.9316 133.1 85.8847 137.165 89.3695 142.38C92.8543 147.596 94.7143 153.728 94.7143 160C94.7143 168.411 91.373 176.478 85.4254 182.425C79.4778 188.373 71.4112 191.714 63 191.714Z" fill="#114477"/>
<path d="M123.317 171C122.848 171 122.453 170.84 122.133 170.52C121.813 170.2 121.653 169.805 121.653 169.336V147.672C121.653 147.181 121.813 146.787 122.133 146.488C122.453 146.168 122.848 146.008 123.317 146.008H140.341C140.832 146.008 141.226 146.168 141.525 146.488C141.845 146.787 142.005 147.181 142.005 147.672V169.336C142.005 169.805 141.845 170.2 141.525 170.52C141.226 170.84 140.832 171 140.341 171C139.872 171 139.477 170.84 139.157 170.52C138.837 170.2 138.677 169.805 138.677 169.336V148.952H124.981V169.336C124.981 169.805 124.821 170.2 124.501 170.52C124.202 170.84 123.808 171 123.317 171ZM156.019 171.128C154.291 171.128 152.766 170.755 151.443 170.008C150.12 169.24 149.075 168.195 148.307 166.872C147.56 165.528 147.187 163.992 147.187 162.264C147.187 160.515 147.56 158.979 148.307 157.656C149.075 156.312 150.12 155.267 151.443 154.52C152.766 153.752 154.291 153.368 156.019 153.368C157.726 153.368 159.24 153.752 160.563 154.52C161.886 155.267 162.92 156.312 163.667 157.656C164.435 158.979 164.819 160.515 164.819 162.264C164.819 163.992 164.446 165.528 163.699 166.872C162.952 168.195 161.918 169.24 160.595 170.008C159.272 170.755 157.747 171.128 156.019 171.128ZM156.019 168.248C157.128 168.248 158.11 167.992 158.963 167.48C159.816 166.968 160.478 166.264 160.947 165.368C161.438 164.472 161.683 163.437 161.683 162.264C161.683 161.091 161.438 160.056 160.947 159.16C160.478 158.243 159.816 157.528 158.963 157.016C158.11 156.504 157.128 156.248 156.019 156.248C154.91 156.248 153.928 156.504 153.075 157.016C152.222 157.528 151.55 158.243 151.059 159.16C150.568 160.056 150.323 161.091 150.323 162.264C150.323 163.437 150.568 164.472 151.059 165.368C151.55 166.264 152.222 166.968 153.075 167.48C153.928 167.992 154.91 168.248 156.019 168.248ZM176.973 171.128C175.373 171.128 173.954 170.755 172.717 170.008C171.501 169.24 170.541 168.195 169.837 166.872C169.133 165.528 168.781 163.992 168.781 162.264C168.781 160.515 169.154 158.979 169.901 157.656C170.669 156.312 171.714 155.267 173.037 154.52C174.36 153.752 175.885 153.368 177.613 153.368C179.32 153.368 180.834 153.752 182.157 154.52C183.48 155.267 184.514 156.312 185.261 157.656C186.029 158.979 186.413 160.515 186.413 162.264H184.525C184.525 163.992 184.194 165.528 183.533 166.872C182.893 168.195 182.008 169.24 180.877 170.008C179.746 170.755 178.445 171.128 176.973 171.128ZM177.549 178.264C176.034 178.264 174.616 177.965 173.293 177.368C171.97 176.771 170.85 175.896 169.933 174.744C169.656 174.381 169.549 174.008 169.613 173.624C169.698 173.24 169.912 172.931 170.253 172.696C170.637 172.44 171.032 172.355 171.437 172.44C171.864 172.525 172.205 172.739 172.461 173.08C173.037 173.805 173.762 174.371 174.637 174.776C175.512 175.181 176.504 175.384 177.613 175.384C178.637 175.384 179.576 175.139 180.429 174.648C181.304 174.157 181.997 173.432 182.509 172.472C183.021 171.512 183.277 170.339 183.277 168.952V164.408L184.333 161.592L186.413 162.264V169.176C186.413 170.861 186.04 172.387 185.293 173.752C184.546 175.139 183.501 176.237 182.157 177.048C180.834 177.859 179.298 178.264 177.549 178.264ZM177.613 168.248C178.722 168.248 179.704 167.992 180.557 167.48C181.41 166.968 182.072 166.264 182.541 165.368C183.032 164.472 183.277 163.437 183.277 162.264C183.277 161.091 183.032 160.056 182.541 159.16C182.072 158.243 181.41 157.528 180.557 157.016C179.704 156.504 178.722 156.248 177.613 156.248C176.504 156.248 175.522 156.504 174.669 157.016C173.816 157.528 173.144 158.243 172.653 159.16C172.162 160.056 171.917 161.091 171.917 162.264C171.917 163.437 172.162 164.472 172.653 165.368C173.144 166.264 173.816 166.968 174.669 167.48C175.522 167.992 176.504 168.248 177.613 168.248ZM214.247 171.032C213.777 171.032 213.383 170.883 213.063 170.584C212.764 170.264 212.615 169.869 212.615 169.4V160.248C212.615 158.904 212.284 157.912 211.623 157.272C210.961 156.611 210.097 156.28 209.031 156.28C207.921 156.28 207.004 156.664 206.279 157.432C205.575 158.2 205.223 159.181 205.223 160.376H202.567C202.567 158.989 202.865 157.773 203.463 156.728C204.06 155.661 204.892 154.829 205.959 154.232C207.047 153.635 208.284 153.336 209.671 153.336C210.887 153.336 211.964 153.603 212.903 154.136C213.841 154.669 214.567 155.459 215.079 156.504C215.612 157.528 215.879 158.776 215.879 160.248V169.4C215.879 169.869 215.729 170.264 215.431 170.584C215.132 170.883 214.737 171.032 214.247 171.032ZM192.903 171.032C192.433 171.032 192.039 170.883 191.719 170.584C191.42 170.264 191.271 169.869 191.271 169.4V155.16C191.271 154.669 191.42 154.275 191.719 153.976C192.039 153.677 192.433 153.528 192.903 153.528C193.393 153.528 193.788 153.677 194.087 153.976C194.385 154.275 194.535 154.669 194.535 155.16V169.4C194.535 169.869 194.385 170.264 194.087 170.584C193.788 170.883 193.393 171.032 192.903 171.032ZM203.591 171.032C203.121 171.032 202.727 170.883 202.407 170.584C202.108 170.264 201.959 169.869 201.959 169.4V160.248C201.959 158.904 201.628 157.912 200.967 157.272C200.305 156.611 199.441 156.28 198.375 156.28C197.265 156.28 196.348 156.664 195.623 157.432C194.897 158.2 194.535 159.181 194.535 160.376H192.519C192.519 158.989 192.796 157.773 193.351 156.728C193.905 155.661 194.673 154.829 195.655 154.232C196.636 153.635 197.756 153.336 199.015 153.336C200.231 153.336 201.308 153.603 202.247 154.136C203.185 154.669 203.911 155.459 204.423 156.504C204.956 157.528 205.223 158.776 205.223 160.248V169.4C205.223 169.869 205.073 170.264 204.775 170.584C204.476 170.883 204.081 171.032 203.591 171.032ZM222.934 171C222.465 171 222.07 170.851 221.75 170.552C221.451 170.232 221.302 169.837 221.302 169.368V155.096C221.345 154.627 221.515 154.243 221.814 153.944C222.113 153.645 222.486 153.496 222.934 153.496C223.425 153.496 223.819 153.645 224.118 153.944C224.417 154.243 224.566 154.637 224.566 155.128V160.632H230.774V161.272C231.947 161.272 232.982 161.475 233.878 161.88C234.795 162.285 235.51 162.851 236.022 163.576C236.534 164.28 236.79 165.101 236.79 166.04C236.79 167 236.534 167.853 236.022 168.6C235.51 169.347 234.795 169.933 233.878 170.36C232.982 170.787 231.947 171 230.774 171H222.934ZM224.566 167.96H230.774C231.627 167.96 232.321 167.757 232.854 167.352C233.387 166.925 233.654 166.381 233.654 165.72C233.654 165.016 233.387 164.44 232.854 163.992C232.321 163.544 231.627 163.32 230.774 163.32H224.566V167.96ZM228.246 162.36V160.632H231.286C231.819 160.632 232.257 160.429 232.598 160.024C232.939 159.597 233.11 159.064 233.11 158.424C233.11 157.869 232.907 157.411 232.502 157.048C232.097 156.685 231.585 156.504 230.966 156.504H222.966V153.496H230.966C231.969 153.496 232.854 153.699 233.622 154.104C234.411 154.488 235.03 155.032 235.478 155.736C235.926 156.419 236.15 157.208 236.15 158.104C236.15 159.341 235.681 160.365 234.742 161.176C233.825 161.965 232.673 162.36 231.286 162.36H228.246ZM249.026 171.128C247.255 171.128 245.677 170.755 244.29 170.008C242.925 169.24 241.847 168.195 241.058 166.872C240.29 165.528 239.906 163.992 239.906 162.264C239.906 160.515 240.269 158.979 240.994 157.656C241.741 156.312 242.765 155.267 244.066 154.52C245.367 153.752 246.861 153.368 248.546 153.368C250.21 153.368 251.639 153.741 252.834 154.488C254.029 155.213 254.935 156.227 255.554 157.528C256.194 158.808 256.514 160.291 256.514 161.976C256.514 162.381 256.375 162.723 256.098 163C255.821 163.256 255.469 163.384 255.042 163.384H242.146V160.824H254.946L253.634 161.72C253.613 160.653 253.399 159.704 252.994 158.872C252.589 158.019 252.013 157.347 251.266 156.856C250.519 156.365 249.613 156.12 248.546 156.12C247.33 156.12 246.285 156.387 245.41 156.92C244.557 157.453 243.906 158.189 243.458 159.128C243.01 160.045 242.786 161.091 242.786 162.264C242.786 163.437 243.053 164.483 243.586 165.4C244.119 166.317 244.855 167.043 245.794 167.576C246.733 168.109 247.81 168.376 249.026 168.376C249.687 168.376 250.359 168.259 251.042 168.024C251.746 167.768 252.311 167.48 252.738 167.16C253.058 166.925 253.399 166.808 253.762 166.808C254.146 166.787 254.477 166.893 254.754 167.128C255.117 167.448 255.309 167.8 255.33 168.184C255.351 168.568 255.181 168.899 254.818 169.176C254.093 169.752 253.186 170.221 252.098 170.584C251.031 170.947 250.007 171.128 249.026 171.128ZM262.309 178.488C261.84 178.488 261.445 178.328 261.125 178.008C260.826 177.709 260.677 177.325 260.677 176.856V162.264C260.698 160.579 261.093 159.064 261.861 157.72C262.629 156.376 263.674 155.32 264.997 154.552C266.32 153.763 267.813 153.368 269.477 153.368C271.162 153.368 272.666 153.763 273.989 154.552C275.312 155.32 276.357 156.376 277.125 157.72C277.914 159.064 278.309 160.579 278.309 162.264C278.309 163.949 277.946 165.464 277.221 166.808C276.517 168.131 275.546 169.187 274.309 169.976C273.072 170.744 271.674 171.128 270.117 171.128C268.858 171.128 267.696 170.872 266.629 170.36C265.584 169.827 264.688 169.112 263.941 168.216V176.856C263.941 177.325 263.792 177.709 263.493 178.008C263.194 178.328 262.8 178.488 262.309 178.488ZM269.477 168.248C270.565 168.248 271.536 167.992 272.389 167.48C273.242 166.947 273.914 166.232 274.405 165.336C274.917 164.419 275.173 163.395 275.173 162.264C275.173 161.112 274.917 160.088 274.405 159.192C273.914 158.275 273.242 157.56 272.389 157.048C271.536 156.515 270.565 156.248 269.477 156.248C268.41 156.248 267.44 156.515 266.565 157.048C265.712 157.56 265.04 158.275 264.549 159.192C264.058 160.088 263.813 161.112 263.813 162.264C263.813 163.395 264.058 164.419 264.549 165.336C265.04 166.232 265.712 166.947 266.565 167.48C267.44 167.992 268.41 168.248 269.477 168.248ZM291.151 171.032C290.682 171.032 290.287 170.883 289.967 170.584C289.668 170.264 289.519 169.869 289.519 169.4V163.48H287.343L282.447 170.552C282.234 170.851 281.882 171 281.391 171C280.922 171.021 280.548 170.893 280.271 170.616C279.951 170.296 279.802 169.965 279.823 169.624C279.844 169.283 279.962 168.952 280.175 168.632L284.655 162.008L280.527 155.832C280.314 155.491 280.207 155.149 280.207 154.808C280.228 154.445 280.399 154.115 280.719 153.816C280.996 153.56 281.37 153.443 281.839 153.464C282.33 153.464 282.682 153.645 282.895 154.008L287.151 160.6H289.519V155.128C289.519 154.637 289.668 154.243 289.967 153.944C290.287 153.645 290.682 153.496 291.151 153.496C291.642 153.496 292.036 153.645 292.335 153.944C292.634 154.243 292.783 154.637 292.783 155.128V160.6H295.183L299.407 154.008C299.642 153.645 299.994 153.464 300.463 153.464C300.932 153.443 301.306 153.56 301.583 153.816C301.903 154.115 302.074 154.445 302.095 154.808C302.116 155.149 302.01 155.491 301.775 155.832L297.647 162.008L302.127 168.632C302.34 168.952 302.458 169.283 302.479 169.624C302.5 169.965 302.351 170.296 302.031 170.616C301.754 170.893 301.37 171.021 300.879 171C300.41 171 300.068 170.851 299.855 170.552L294.991 163.48H292.783V169.4C292.783 169.869 292.634 170.264 292.335 170.584C292.036 170.883 291.642 171.032 291.151 171.032ZM312.192 171.128C310.592 171.128 309.173 170.755 307.936 170.008C306.72 169.24 305.76 168.195 305.056 166.872C304.352 165.528 304 163.992 304 162.264C304 160.515 304.373 158.979 305.12 157.656C305.888 156.312 306.933 155.267 308.256 154.52C309.578 153.752 311.104 153.368 312.832 153.368C314.538 153.368 316.053 153.752 317.376 154.52C318.698 155.267 319.733 156.312 320.48 157.656C321.248 158.979 321.632 160.515 321.632 162.264H319.744C319.744 163.992 319.413 165.528 318.752 166.872C318.112 168.195 317.226 169.24 316.096 170.008C314.965 170.755 313.664 171.128 312.192 171.128ZM312.768 178.264C311.253 178.264 309.834 177.965 308.512 177.368C307.189 176.771 306.069 175.896 305.152 174.744C304.874 174.381 304.768 174.008 304.832 173.624C304.917 173.24 305.13 172.931 305.472 172.696C305.856 172.44 306.25 172.355 306.656 172.44C307.082 172.525 307.424 172.739 307.68 173.08C308.256 173.805 308.981 174.371 309.856 174.776C310.73 175.181 311.722 175.384 312.832 175.384C313.856 175.384 314.794 175.139 315.648 174.648C316.522 174.157 317.216 173.432 317.728 172.472C318.24 171.512 318.496 170.339 318.496 168.952V164.408L319.552 161.592L321.632 162.264V169.176C321.632 170.861 321.258 172.387 320.512 173.752C319.765 175.139 318.72 176.237 317.376 177.048C316.053 177.859 314.517 178.264 312.768 178.264ZM312.832 168.248C313.941 168.248 314.922 167.992 315.776 167.48C316.629 166.968 317.29 166.264 317.76 165.368C318.25 164.472 318.496 163.437 318.496 162.264C318.496 161.091 318.25 160.056 317.76 159.16C317.29 158.243 316.629 157.528 315.776 157.016C314.922 156.504 313.941 156.248 312.832 156.248C311.722 156.248 310.741 156.504 309.888 157.016C309.034 157.528 308.362 158.243 307.872 159.16C307.381 160.056 307.136 161.091 307.136 162.264C307.136 163.437 307.381 164.472 307.872 165.368C308.362 166.264 309.034 166.968 309.888 167.48C310.741 167.992 311.722 168.248 312.832 168.248ZM334.713 171.128C332.943 171.128 331.364 170.755 329.977 170.008C328.612 169.24 327.535 168.195 326.745 166.872C325.977 165.528 325.593 163.992 325.593 162.264C325.593 160.515 325.956 158.979 326.681 157.656C327.428 156.312 328.452 155.267 329.753 154.52C331.055 153.752 332.548 153.368 334.233 153.368C335.897 153.368 337.327 153.741 338.521 154.488C339.716 155.213 340.623 156.227 341.241 157.528C341.881 158.808 342.201 160.291 342.201 161.976C342.201 162.381 342.063 162.723 341.785 163C341.508 163.256 341.156 163.384 340.729 163.384H327.833V160.824H340.633L339.321 161.72C339.3 160.653 339.087 159.704 338.681 158.872C338.276 158.019 337.7 157.347 336.953 156.856C336.207 156.365 335.3 156.12 334.233 156.12C333.017 156.12 331.972 156.387 331.097 156.92C330.244 157.453 329.593 158.189 329.145 159.128C328.697 160.045 328.473 161.091 328.473 162.264C328.473 163.437 328.74 164.483 329.273 165.4C329.807 166.317 330.543 167.043 331.481 167.576C332.42 168.109 333.497 168.376 334.713 168.376C335.375 168.376 336.047 168.259 336.729 168.024C337.433 167.768 337.999 167.48 338.425 167.16C338.745 166.925 339.087 166.808 339.449 166.808C339.833 166.787 340.164 166.893 340.441 167.128C340.804 167.448 340.996 167.8 341.017 168.184C341.039 168.568 340.868 168.899 340.505 169.176C339.78 169.752 338.873 170.221 337.785 170.584C336.719 170.947 335.695 171.128 334.713 171.128ZM330.649 150.808C330.116 150.808 329.657 150.627 329.273 150.264C328.889 149.88 328.697 149.421 328.697 148.888C328.697 148.376 328.889 147.928 329.273 147.544C329.657 147.16 330.116 146.968 330.649 146.968C331.161 146.968 331.609 147.16 331.993 147.544C332.377 147.928 332.569 148.376 332.569 148.888C332.569 149.421 332.377 149.88 331.993 150.264C331.609 150.627 331.161 150.808 330.649 150.808ZM337.753 150.808C337.22 150.808 336.761 150.627 336.377 150.264C336.015 149.88 335.833 149.421 335.833 148.888C335.833 148.376 336.015 147.928 336.377 147.544C336.761 147.16 337.22 146.968 337.753 146.968C338.265 146.968 338.713 147.16 339.097 147.544C339.481 147.928 339.673 148.376 339.673 148.888C339.673 149.421 339.481 149.88 339.097 150.264C338.713 150.627 338.265 150.808 337.753 150.808ZM361.084 171C360.615 171 360.22 170.851 359.9 170.552C359.602 170.232 359.452 169.837 359.452 169.368V155.128C359.452 154.637 359.602 154.243 359.9 153.944C360.22 153.645 360.615 153.496 361.084 153.496C361.575 153.496 361.959 153.645 362.236 153.944C362.514 154.243 362.652 154.637 362.652 155.128V169.368C362.652 169.837 362.514 170.232 362.236 170.552C361.959 170.851 361.575 171 361.084 171ZM347.932 171C347.463 171 347.079 170.851 346.78 170.552C346.503 170.232 346.364 169.837 346.364 169.368V155.128C346.364 154.637 346.503 154.243 346.78 153.944C347.079 153.645 347.463 153.496 347.932 153.496C348.423 153.496 348.818 153.645 349.116 153.944C349.415 154.243 349.564 154.637 349.564 155.128V169.368C349.564 169.837 349.415 170.232 349.116 170.552C348.818 170.851 348.423 171 347.932 171ZM349.148 163.352V160.472H360.38V163.352H349.148ZM383.147 171C382.678 171 382.283 170.851 381.963 170.552C381.664 170.232 381.515 169.837 381.515 169.368V155.128C381.515 154.637 381.664 154.243 381.963 153.944C382.283 153.645 382.678 153.496 383.147 153.496C383.638 153.496 384.022 153.645 384.299 153.944C384.576 154.243 384.715 154.637 384.715 155.128V169.368C384.715 169.837 384.576 170.232 384.299 170.552C384.022 170.851 383.638 171 383.147 171ZM369.995 171C369.526 171 369.142 170.851 368.843 170.552C368.566 170.232 368.427 169.837 368.427 169.368V155.128C368.427 154.637 368.566 154.243 368.843 153.944C369.142 153.645 369.526 153.496 369.995 153.496C370.486 153.496 370.88 153.645 371.179 153.944C371.478 154.243 371.627 154.637 371.627 155.128V169.368C371.627 169.837 371.478 170.232 371.179 170.552C370.88 170.851 370.486 171 369.995 171ZM371.211 163.352V160.472H382.443V163.352H371.211ZM397.817 171.32C396.388 171.32 395.119 171.021 394.009 170.424C392.9 169.805 392.036 168.963 391.417 167.896C390.799 166.829 390.489 165.613 390.489 164.248V155.096C390.532 154.627 390.703 154.243 391.001 153.944C391.3 153.645 391.673 153.496 392.121 153.496C392.612 153.496 393.007 153.645 393.305 153.944C393.604 154.243 393.753 154.637 393.753 155.128V158.712H398.137C399.481 158.712 400.665 158.947 401.689 159.416C402.735 159.885 403.545 160.568 404.121 161.464C404.719 162.36 405.017 163.459 405.017 164.76C405.017 166.147 404.708 167.331 404.089 168.312C403.492 169.293 402.649 170.04 401.561 170.552C400.473 171.064 399.225 171.32 397.817 171.32ZM397.817 168.28C399.012 168.28 399.983 167.992 400.729 167.416C401.497 166.819 401.881 165.933 401.881 164.76C401.881 163.629 401.529 162.797 400.825 162.264C400.121 161.731 399.225 161.464 398.137 161.464H393.753V164.184C393.753 165.379 394.127 166.36 394.873 167.128C395.641 167.896 396.623 168.28 397.817 168.28ZM409.433 171C408.964 171 408.569 170.851 408.249 170.552C407.951 170.232 407.801 169.837 407.801 169.368V155.128C407.801 154.637 407.951 154.243 408.249 153.944C408.569 153.645 408.964 153.496 409.433 153.496C409.924 153.496 410.319 153.645 410.617 153.944C410.916 154.243 411.065 154.637 411.065 155.128V169.368C411.065 169.837 410.916 170.232 410.617 170.552C410.319 170.851 409.924 171 409.433 171ZM424.193 171.16C422.721 171.16 421.398 170.851 420.225 170.232C419.073 169.592 418.156 168.664 417.473 167.448C416.812 166.232 416.481 164.739 416.481 162.968V155.096C416.481 154.627 416.63 154.243 416.929 153.944C417.249 153.624 417.644 153.464 418.113 153.464C418.582 153.464 418.966 153.624 419.265 153.944C419.585 154.243 419.745 154.627 419.745 155.096V162.968C419.745 164.163 419.969 165.155 420.417 165.944C420.865 166.712 421.473 167.288 422.241 167.672C423.009 168.035 423.873 168.216 424.833 168.216C425.75 168.216 426.561 168.035 427.265 167.672C427.99 167.309 428.566 166.819 428.993 166.2C429.42 165.581 429.633 164.888 429.633 164.12H431.649C431.649 165.443 431.318 166.637 430.657 167.704C430.017 168.771 429.132 169.613 428.001 170.232C426.892 170.851 425.622 171.16 424.193 171.16ZM431.265 171C430.796 171 430.401 170.851 430.081 170.552C429.782 170.232 429.633 169.837 429.633 169.368V155.096C429.633 154.605 429.782 154.211 430.081 153.912C430.401 153.613 430.796 153.464 431.265 153.464C431.756 153.464 432.15 153.613 432.449 153.912C432.748 154.211 432.897 154.605 432.897 155.096V169.368C432.897 169.837 432.748 170.232 432.449 170.552C432.15 170.851 431.756 171 431.265 171ZM424.865 151.192C423.777 151.192 422.796 151.011 421.921 150.648C421.046 150.264 420.353 149.752 419.841 149.112C419.329 148.451 419.073 147.715 419.073 146.904C419.073 146.456 419.212 146.083 419.489 145.784C419.766 145.485 420.108 145.336 420.513 145.336C420.94 145.336 421.281 145.485 421.537 145.784C421.814 146.083 421.953 146.456 421.953 146.904C421.953 147.437 422.23 147.896 422.785 148.28C423.34 148.643 424.033 148.824 424.865 148.824C425.697 148.824 426.39 148.643 426.945 148.28C427.5 147.896 427.777 147.437 427.777 146.904C427.777 146.456 427.916 146.083 428.193 145.784C428.47 145.485 428.812 145.336 429.217 145.336C429.644 145.336 429.985 145.485 430.241 145.784C430.518 146.083 430.657 146.456 430.657 146.904C430.657 147.715 430.401 148.451 429.889 149.112C429.377 149.752 428.684 150.264 427.809 150.648C426.956 151.011 425.974 151.192 424.865 151.192ZM462.805 171.032C462.335 171.032 461.941 170.883 461.621 170.584C461.322 170.264 461.173 169.869 461.173 169.4V161.528C461.173 160.312 460.949 159.32 460.501 158.552C460.053 157.784 459.445 157.219 458.677 156.856C457.93 156.472 457.066 156.28 456.085 156.28C455.189 156.28 454.378 156.461 453.653 156.824C452.927 157.187 452.351 157.677 451.925 158.296C451.498 158.893 451.285 159.587 451.285 160.376H449.269C449.269 159.032 449.589 157.837 450.229 156.792C450.89 155.725 451.786 154.883 452.917 154.264C454.047 153.645 455.317 153.336 456.725 153.336C458.197 153.336 459.509 153.656 460.661 154.296C461.834 154.915 462.751 155.832 463.413 157.048C464.095 158.264 464.437 159.757 464.437 161.528V169.4C464.437 169.869 464.277 170.264 463.957 170.584C463.658 170.883 463.274 171.032 462.805 171.032ZM449.653 171.032C449.183 171.032 448.789 170.883 448.469 170.584C448.17 170.264 448.021 169.869 448.021 169.4V155.128C448.021 154.637 448.17 154.243 448.469 153.944C448.789 153.645 449.183 153.496 449.653 153.496C450.143 153.496 450.538 153.645 450.837 153.944C451.135 154.243 451.285 154.637 451.285 155.128V169.4C451.285 169.869 451.135 170.264 450.837 170.584C450.538 170.883 450.143 171.032 449.653 171.032ZM471.465 178.488C470.996 178.488 470.601 178.328 470.281 178.008C469.982 177.709 469.833 177.325 469.833 176.856V162.264C469.854 160.579 470.249 159.064 471.017 157.72C471.785 156.376 472.83 155.32 474.153 154.552C475.476 153.763 476.969 153.368 478.633 153.368C480.318 153.368 481.822 153.763 483.145 154.552C484.468 155.32 485.513 156.376 486.281 157.72C487.07 159.064 487.465 160.579 487.465 162.264C487.465 163.949 487.102 165.464 486.377 166.808C485.673 168.131 484.702 169.187 483.465 169.976C482.228 170.744 480.83 171.128 479.273 171.128C478.014 171.128 476.852 170.872 475.785 170.36C474.74 169.827 473.844 169.112 473.097 168.216V176.856C473.097 177.325 472.948 177.709 472.649 178.008C472.35 178.328 471.956 178.488 471.465 178.488ZM478.633 168.248C479.721 168.248 480.692 167.992 481.545 167.48C482.398 166.947 483.07 166.232 483.561 165.336C484.073 164.419 484.329 163.395 484.329 162.264C484.329 161.112 484.073 160.088 483.561 159.192C483.07 158.275 482.398 157.56 481.545 157.048C480.692 156.515 479.721 156.248 478.633 156.248C477.566 156.248 476.596 156.515 475.721 157.048C474.868 157.56 474.196 158.275 473.705 159.192C473.214 160.088 472.969 161.112 472.969 162.264C472.969 163.395 473.214 164.419 473.705 165.336C474.196 166.232 474.868 166.947 475.721 167.48C476.596 167.992 477.566 168.248 478.633 168.248ZM500.269 171.128C498.541 171.128 497.016 170.755 495.693 170.008C494.37 169.24 493.325 168.195 492.557 166.872C491.81 165.528 491.437 163.992 491.437 162.264C491.437 160.515 491.81 158.979 492.557 157.656C493.325 156.312 494.37 155.267 495.693 154.52C497.016 153.752 498.541 153.368 500.269 153.368C501.976 153.368 503.49 153.752 504.813 154.52C506.136 155.267 507.17 156.312 507.917 157.656C508.685 158.979 509.069 160.515 509.069 162.264C509.069 163.992 508.696 165.528 507.949 166.872C507.202 168.195 506.168 169.24 504.845 170.008C503.522 170.755 501.997 171.128 500.269 171.128ZM500.269 168.248C501.378 168.248 502.36 167.992 503.213 167.48C504.066 166.968 504.728 166.264 505.197 165.368C505.688 164.472 505.933 163.437 505.933 162.264C505.933 161.091 505.688 160.056 505.197 159.16C504.728 158.243 504.066 157.528 503.213 157.016C502.36 156.504 501.378 156.248 500.269 156.248C499.16 156.248 498.178 156.504 497.325 157.016C496.472 157.528 495.8 158.243 495.309 159.16C494.818 160.056 494.573 161.091 494.573 162.264C494.573 163.437 494.818 164.472 495.309 165.368C495.8 166.264 496.472 166.968 497.325 167.48C498.178 167.992 499.16 168.248 500.269 168.248ZM525.063 171.128V168.248C526.172 168.227 527.143 167.96 527.975 167.448C528.828 166.936 529.49 166.232 529.959 165.336C530.45 164.44 530.695 163.416 530.695 162.264C530.695 161.091 530.45 160.056 529.959 159.16C529.49 158.264 528.828 157.56 527.975 157.048C527.143 156.515 526.172 156.248 525.063 156.248V153.368C526.791 153.368 528.306 153.752 529.607 154.52C530.93 155.288 531.964 156.344 532.711 157.688C533.458 159.011 533.831 160.536 533.831 162.264C533.831 163.971 533.458 165.496 532.711 166.84C531.964 168.163 530.93 169.208 529.607 169.976C528.306 170.723 526.791 171.107 525.063 171.128ZM521.799 171.128C520.071 171.107 518.546 170.723 517.223 169.976C515.922 169.208 514.898 168.163 514.151 166.84C513.404 165.496 513.031 163.971 513.031 162.264C513.031 160.536 513.404 159.011 514.151 157.688C514.898 156.344 515.922 155.288 517.223 154.52C518.546 153.752 520.071 153.368 521.799 153.368V156.248C520.711 156.248 519.74 156.515 518.887 157.048C518.034 157.56 517.362 158.264 516.871 159.16C516.402 160.056 516.167 161.091 516.167 162.264C516.167 163.416 516.402 164.44 516.871 165.336C517.362 166.232 518.034 166.936 518.887 167.448C519.74 167.96 520.711 168.227 521.799 168.248V171.128ZM523.431 178.488C522.962 178.488 522.567 178.328 522.247 178.008C521.948 177.709 521.799 177.325 521.799 176.856V147.64C521.799 147.149 521.948 146.755 522.247 146.456C522.567 146.157 522.962 146.008 523.431 146.008C523.922 146.008 524.316 146.157 524.615 146.456C524.914 146.755 525.063 147.149 525.063 147.64V176.856C525.063 177.325 524.914 177.709 524.615 178.008C524.316 178.328 523.922 178.488 523.431 178.488ZM546.068 171.16C544.596 171.16 543.273 170.851 542.1 170.232C540.948 169.592 540.031 168.664 539.348 167.448C538.687 166.232 538.356 164.739 538.356 162.968V155.096C538.356 154.627 538.505 154.243 538.804 153.944C539.124 153.624 539.519 153.464 539.988 153.464C540.457 153.464 540.841 153.624 541.14 153.944C541.46 154.243 541.62 154.627 541.62 155.096V162.968C541.62 164.163 541.844 165.155 542.292 165.944C542.74 166.712 543.348 167.288 544.116 167.672C544.884 168.035 545.748 168.216 546.708 168.216C547.625 168.216 548.436 168.035 549.14 167.672C549.865 167.309 550.441 166.819 550.868 166.2C551.295 165.581 551.508 164.888 551.508 164.12H553.524C553.524 165.443 553.193 166.637 552.532 167.704C551.892 168.771 551.007 169.613 549.876 170.232C548.767 170.851 547.497 171.16 546.068 171.16ZM553.14 171C552.671 171 552.276 170.851 551.956 170.552C551.657 170.232 551.508 169.837 551.508 169.368V155.096C551.508 154.605 551.657 154.211 551.956 153.912C552.276 153.613 552.671 153.464 553.14 153.464C553.631 153.464 554.025 153.613 554.324 153.912C554.623 154.211 554.772 154.605 554.772 155.096V169.368C554.772 169.837 554.623 170.232 554.324 170.552C554.025 170.851 553.631 171 553.14 171ZM567.081 153.528C567.401 153.528 567.689 153.613 567.945 153.784C568.201 153.955 568.403 154.221 568.553 154.584L575.145 168.888C575.337 169.315 575.358 169.699 575.209 170.04C575.059 170.36 574.803 170.605 574.441 170.776C573.971 170.989 573.566 171.043 573.225 170.936C572.883 170.829 572.595 170.563 572.361 170.136L566.345 156.472H567.977L561.769 170.136C561.577 170.541 561.289 170.808 560.905 170.936C560.542 171.043 560.137 170.989 559.689 170.776C559.283 170.584 558.995 170.328 558.825 170.008C558.675 169.688 558.707 169.315 558.921 168.888L565.545 154.584C565.865 153.88 566.377 153.528 567.081 153.528ZM587.206 171.288C585.606 171.288 584.209 171 583.014 170.424C581.841 169.848 580.923 169.037 580.262 167.992C579.622 166.925 579.302 165.677 579.302 164.248V155.096C579.345 154.648 579.515 154.275 579.814 153.976C580.134 153.656 580.507 153.496 580.934 153.496C581.403 153.496 581.787 153.656 582.086 153.976C582.406 154.275 582.566 154.659 582.566 155.128V158.712H587.814C589.201 158.712 590.438 158.957 591.526 159.448C592.635 159.917 593.51 160.611 594.15 161.528C594.79 162.424 595.11 163.501 595.11 164.76C595.11 166.019 594.779 167.139 594.118 168.12C593.478 169.101 592.571 169.88 591.398 170.456C590.225 171.011 588.827 171.288 587.206 171.288ZM587.174 168.28C588.539 168.28 589.681 167.992 590.598 167.416C591.515 166.819 591.974 165.933 591.974 164.76C591.974 163.651 591.579 162.829 590.79 162.296C590.001 161.741 589.009 161.464 587.814 161.464H582.566V164.184C582.566 164.952 582.769 165.645 583.174 166.264C583.579 166.883 584.123 167.373 584.806 167.736C585.51 168.099 586.299 168.28 587.174 168.28Z" fill="#114477"/>
</svg>
