<svg width="317" height="48" viewBox="0 0 317 48" fill="none" xmlns="http://www.w3.org/2000/svg">
<path d="M28.2071 8.11878C29.3828 4.21648 29.9707 2.01022 29.9707 1.5C29.9707 1.09375 29.8224 0.742188 29.5258 0.445312C29.2292 0.148438 28.878 0 28.4722 0C28.2848 0 28.1131 0.0546875 27.957 0.164062C27.8009 0.273438 27.6839 0.382812 27.6058 0.492188C27.5278 0.601562 27.4185 0.773438 27.278 1.00781C27.1375 1.24219 27.0361 1.40625 26.9736 1.5C25.9126 3.08077 25.1441 5.07151 24.6681 7.47222C24.5419 8.1089 24.4362 8.77441 24.3512 9.46875L28.2071 8.11878ZM28.2071 8.11878C27.6825 8.33686 27.1825 8.61384 26.71 8.95168L27.5824 10.1719M28.2071 8.11878L27.5824 10.1719M27.5824 10.1719L29.0164 10.612C29.1583 10.1495 29.2941 9.7049 29.4236 9.27812M27.5824 10.1719L29.4236 9.27812M29.4236 9.27812C30.0573 9.09271 30.7392 9 31.4692 9C33.0614 9 34.599 9.14062 36.0819 9.42188C37.5648 9.70312 39.04 10.2109 40.5073 10.9453C41.9746 11.6797 43.2468 12.5938 44.3239 13.6875C45.4009 14.7812 46.2751 16.2188 46.9463 18C47.6175 19.7812 47.9531 21.7812 47.9531 24C47.9531 26.2188 47.5239 28.5234 46.6653 30.9141C45.8068 33.3047 44.6985 35.4922 43.3404 37.4766C41.9824 39.4609 40.5073 41.2578 38.9151 42.8672C37.3229 44.4766 35.7307 45.7344 34.1385 46.6406C32.5463 47.5469 31.157 48 29.9707 48C28.9717 48 28.1756 47.9219 27.5824 47.7656C26.9892 47.6094 26.599 47.4375 26.4117 47.25C26.2243 47.0625 25.9356 46.8906 25.5453 46.7344C25.1551 46.5781 24.6322 46.5 23.9765 46.5C23.3209 46.5 22.798 46.5781 22.4078 46.7344C22.0175 46.8906 21.7287 47.0625 21.5414 47.25C21.3541 47.4375 20.9639 47.6094 20.3707 47.7656C19.7775 47.9219 18.9814 48 17.9824 48C16.7961 48 15.4068 47.5469 13.8146 46.6406C12.2224 45.7344 10.6302 44.4766 9.03801 42.8672C7.44581 41.2578 5.97069 39.4609 4.61264 37.4766C3.25459 35.4922 2.1463 33.3047 1.28776 30.9141C0.429226 28.5234 -4.19617e-05 26.2188 -4.19617e-05 24C-4.19617e-05 21.875 0.304348 19.9609 0.913129 18.2578C1.52191 16.5547 2.31801 15.1562 3.30142 14.0625C4.28484 12.9688 5.45557 12.0469 6.81362 11.2969C8.17167 10.5469 9.55313 10 10.958 9.65625C11.5668 9.50728 12.1874 9.38473 12.8196 9.28858C13.3244 9.58662 13.9168 9.93653 14.597 10.3384L15.36 9.04688L15.2987 7.54813C14.5643 7.57813 13.8416 7.63876 13.1307 7.73031C12.4631 7.33621 11.9887 7.05631 11.7073 6.89062C10.4897 6.26562 9.40484 5.39844 8.45264 4.28906C7.59384 3.2885 6.98265 2.40868 6.61906 1.64961L29.4236 9.27812ZM15.4212 10.5456L20.4952 10.3383L16.1229 7.75539C14.2188 6.63055 13.0002 5.91121 12.4684 5.59805L12.4309 5.57601L12.3923 5.55617C11.359 5.02579 10.4253 4.28426 9.59087 3.31211C8.99998 2.62368 8.56699 2.03405 8.26593 1.53898C8.88656 1.51797 9.48435 1.52756 10.0598 1.56683C10.6295 1.60571 11.34 1.72606 12.2037 1.94585C13.0188 2.15329 13.7579 2.43289 14.4264 2.7801C15.6932 3.45741 17.2272 4.55769 19.0373 6.12588C20.8454 7.69242 22.2056 9.10672 23.1508 10.3682L25.1387 13.0214L24.8471 13.9715L28.4548 11.3921C29.2639 10.8136 30.2458 10.5 31.4692 10.5C32.9727 10.5 34.4165 10.6328 35.8024 10.8956C37.1379 11.1489 38.4818 11.609 39.8359 12.2867C41.166 12.9524 42.3014 13.7716 43.2551 14.74C44.1544 15.6532 44.9281 16.8979 45.5427 18.5289C46.1406 20.1156 46.4531 21.9325 46.4531 24C46.4531 26.0229 46.0621 28.1559 45.2536 30.4071C44.4359 32.6841 43.3845 34.7563 42.1026 36.6294C40.7922 38.5441 39.3739 40.2707 37.8487 41.8122C36.3311 43.3462 34.8456 44.5122 33.3965 45.337C31.9179 46.1786 30.7924 46.5 29.9707 46.5C29.0307 46.5 28.3798 46.4245 27.9645 46.3151C27.714 46.2491 27.5489 46.1906 27.4494 46.1468C27.4326 46.1394 27.4193 46.1331 27.4091 46.1281C27.029 45.7709 26.5579 45.524 26.1029 45.3418C25.4644 45.0862 24.728 45 23.9765 45C23.2251 45 22.4887 45.0862 21.8502 45.3418C21.3952 45.524 20.9241 45.7709 20.544 46.1281C20.5338 46.1331 20.5205 46.1394 20.5036 46.1468C20.4042 46.1906 20.2391 46.2491 19.9886 46.3151C19.5733 46.4245 18.9224 46.5 17.9824 46.5C17.1607 46.5 16.0352 46.1786 14.5566 45.337C13.1074 44.5122 11.6219 43.3462 10.1043 41.8122C8.57922 40.2707 7.16086 38.5441 5.85051 36.6294C4.56863 34.7563 3.51724 32.6841 2.69949 30.4071C1.89102 28.1559 1.49996 26.0229 1.49996 24C1.49996 22.0176 1.78388 20.2782 2.3256 18.7627C2.88334 17.2024 3.59013 15.9849 4.41685 15.0654C5.28238 14.1028 6.31913 13.2835 7.53877 12.6099C8.78922 11.9194 10.0473 11.4233 11.3145 11.1133C12.6171 10.7945 13.9852 10.6043 15.4212 10.5456ZM26.1484 9.73175L25.6187 11.4575L25.84 9.65117C26.2277 6.48748 27.0486 4.0797 28.2191 2.33598L28.2221 2.33149C28.2539 2.28366 28.2905 2.22656 28.3314 2.16138C28.239 2.55341 28.1053 3.06934 27.9275 3.715C27.5352 5.13939 26.9431 7.14272 26.1484 9.73175Z" fill="#64A847" stroke="#211714" stroke-width="3"/>
<path d="M99.1603 8.11878C100.336 4.21648 100.924 2.01022 100.924 1.5C100.924 1.09375 100.776 0.742188 100.479 0.445312C100.182 0.148438 99.8311 0 99.4253 0C99.238 0 99.0663 0.0546875 98.9102 0.164062C98.7541 0.273438 98.637 0.382812 98.5589 0.492188C98.4809 0.601562 98.3716 0.773438 98.2311 1.00781C98.0906 1.24219 97.9892 1.40625 97.9267 1.5C96.8657 3.08077 96.0972 5.07151 95.6212 7.47222C95.495 8.1089 95.3894 8.77441 95.3043 9.46875L99.1603 8.11878ZM99.1603 8.11878C98.6356 8.33686 98.1356 8.61384 97.6631 8.95168L98.5355 10.1719M99.1603 8.11878L98.5355 10.1719M98.5355 10.1719L99.9695 10.612C100.111 10.1495 100.247 9.7049 100.377 9.27812M98.5355 10.1719L100.377 9.27812M100.377 9.27812C101.01 9.09271 101.692 9 102.422 9C104.015 9 105.552 9.14062 107.035 9.42188C108.518 9.70312 109.993 10.2109 111.46 10.9453C112.928 11.6797 114.2 12.5938 115.277 13.6875C116.354 14.7812 117.228 16.2188 117.899 18C118.571 19.7812 118.906 21.7812 118.906 24C118.906 26.2188 118.477 28.5234 117.618 30.9141C116.76 33.3047 115.652 35.4922 114.294 37.4766C112.936 39.4609 111.46 41.2578 109.868 42.8672C108.276 44.4766 106.684 45.7344 105.092 46.6406C103.499 47.5469 102.11 48 100.924 48C99.9248 48 99.1287 47.9219 98.5355 47.7656C97.9424 47.6094 97.5521 47.4375 97.3648 47.25C97.1775 47.0625 96.8887 46.8906 96.4984 46.7344C96.1082 46.5781 95.5853 46.5 94.9297 46.5C94.2741 46.5 93.7511 46.5781 93.3609 46.7344C92.9706 46.8906 92.6819 47.0625 92.4945 47.25C92.3072 47.4375 91.917 47.6094 91.3238 47.7656C90.7306 47.9219 89.9345 48 88.9355 48C87.7492 48 86.3599 47.5469 84.7677 46.6406C83.1755 45.7344 81.5833 44.4766 79.9911 42.8672C78.3989 41.2578 76.9238 39.4609 75.5658 37.4766C74.2077 35.4922 73.0994 33.3047 72.2409 30.9141C71.3824 28.5234 70.9531 26.2188 70.9531 24C70.9531 21.875 71.2575 19.9609 71.8663 18.2578C72.475 16.5547 73.2711 15.1562 74.2545 14.0625C75.238 12.9688 76.4087 12.0469 77.7667 11.2969C79.1248 10.5469 80.5063 10 81.9111 9.65625C82.5199 9.50728 83.1405 9.38473 83.7728 9.28858C84.2775 9.58662 84.8699 9.93653 85.5501 10.3384L86.3131 9.04688L86.2518 7.54813C85.5174 7.57813 84.7947 7.63876 84.0838 7.73031C83.4163 7.33621 82.9418 7.05631 82.6604 6.89062C81.4428 6.26562 80.358 5.39844 79.4058 4.28906C78.547 3.2885 77.9358 2.40868 77.5722 1.64961L100.377 9.27812ZM86.3743 10.5456L91.4484 10.3383L87.076 7.75539C85.1719 6.63055 83.9533 5.91121 83.4215 5.59805L83.3841 5.57601L83.3454 5.55617C82.3122 5.02579 81.3784 4.28426 80.544 3.31211C79.9531 2.62368 79.5201 2.03405 79.2191 1.53898C79.8397 1.51797 80.4375 1.52756 81.0129 1.56683C81.5826 1.60571 82.2931 1.72606 83.1568 1.94585C83.9719 2.15329 84.7111 2.43289 85.3795 2.7801C86.6463 3.45741 88.1804 4.55769 89.9904 6.12588C91.7985 7.69242 93.1587 9.10672 94.1039 10.3682L96.0919 13.0214L95.8002 13.9715L99.4079 11.3921C100.217 10.8136 101.199 10.5 102.422 10.5C103.926 10.5 105.37 10.6328 106.756 10.8956C108.091 11.1489 109.435 11.609 110.789 12.2867C112.119 12.9524 113.255 13.7716 114.208 14.74C115.108 15.6532 115.881 16.8979 116.496 18.5289C117.094 20.1156 117.406 21.9325 117.406 24C117.406 26.0229 117.015 28.1559 116.207 30.4071C115.389 32.6841 114.338 34.7563 113.056 36.6294C111.745 38.5441 110.327 40.2707 108.802 41.8122C107.284 43.3462 105.799 44.5122 104.35 45.337C102.871 46.1786 101.746 46.5 100.924 46.5C99.9839 46.5 99.3329 46.4245 98.9176 46.3151C98.6672 46.2491 98.502 46.1906 98.4026 46.1468C98.3857 46.1394 98.3724 46.1331 98.3622 46.1281C97.9821 45.7709 97.511 45.524 97.056 45.3418C96.4175 45.0862 95.6811 45 94.9297 45C94.1782 45 93.4418 45.0862 92.8033 45.3418C92.3483 45.524 91.8772 45.7709 91.4971 46.1281C91.4869 46.1331 91.4736 46.1394 91.4568 46.1468C91.3573 46.1906 91.1922 46.2491 90.9417 46.3151C90.5264 46.4245 89.8755 46.5 88.9355 46.5C88.1138 46.5 86.9883 46.1786 85.5097 45.337C84.0606 44.5122 82.5751 43.3462 81.0575 41.8122C79.5323 40.2707 78.114 38.5441 76.8036 36.6294C75.5218 34.7563 74.4704 32.6841 73.6526 30.4071C72.8441 28.1559 72.4531 26.0229 72.4531 24C72.4531 22.0176 72.737 20.2782 73.2787 18.7627C73.8365 17.2024 74.5433 15.9849 75.37 15.0654C76.2355 14.1028 77.2723 13.2835 78.4919 12.6099C79.7423 11.9194 81.0004 11.4233 82.2676 11.1133C83.5703 10.7945 84.9383 10.6043 86.3743 10.5456ZM97.1015 9.73175L96.5718 11.4575L96.7932 9.65117C97.1808 6.48748 98.0018 4.0797 99.1722 2.33598L99.1752 2.33149C99.207 2.28366 99.2437 2.22656 99.2845 2.16138C99.1922 2.55341 99.0584 3.06934 98.8806 3.715C98.4883 5.13939 97.8962 7.14272 97.1015 9.73175Z" fill="#64A847" stroke="#211714" stroke-width="3"/>
<path d="M170.113 8.11878C171.289 4.21648 171.877 2.01022 171.877 1.5C171.877 1.09375 171.729 0.742188 171.432 0.445312C171.135 0.148438 170.784 0 170.378 0C170.191 0 170.019 0.0546875 169.863 0.164062C169.707 0.273438 169.59 0.382812 169.512 0.492188C169.434 0.601562 169.325 0.773438 169.184 1.00781C169.044 1.24219 168.942 1.40625 168.88 1.5C167.819 3.08077 167.05 5.07151 166.574 7.47222C166.448 8.1089 166.342 8.77441 166.257 9.46875L170.113 8.11878ZM170.113 8.11878C169.589 8.33686 169.089 8.61384 168.616 8.95168L169.489 10.1719M170.113 8.11878L169.489 10.1719M169.489 10.1719L170.923 10.612C171.065 10.1495 171.2 9.7049 171.33 9.27812M169.489 10.1719L171.33 9.27812M171.33 9.27812C171.964 9.09271 172.645 9 173.375 9C174.968 9 176.505 9.14062 177.988 9.42188C179.471 9.70312 180.946 10.2109 182.414 10.9453C183.881 11.6797 185.153 12.5938 186.23 13.6875C187.307 14.7812 188.181 16.2188 188.853 18C189.524 19.7812 189.859 21.7812 189.859 24C189.859 26.2188 189.43 28.5234 188.572 30.9141C187.713 33.3047 186.605 35.4922 185.247 37.4766C183.889 39.4609 182.414 41.2578 180.821 42.8672C179.229 44.4766 177.637 45.7344 176.045 46.6406C174.453 47.5469 173.063 48 171.877 48C170.878 48 170.082 47.9219 169.489 47.7656C168.895 47.6094 168.505 47.4375 168.318 47.25C168.131 47.0625 167.842 46.8906 167.452 46.7344C167.061 46.5781 166.538 46.5 165.883 46.5C165.227 46.5 164.704 46.5781 164.314 46.7344C163.924 46.8906 163.635 47.0625 163.448 47.25C163.26 47.4375 162.87 47.6094 162.277 47.7656C161.684 47.9219 160.888 48 159.889 48C158.702 48 157.313 47.5469 155.721 46.6406C154.129 45.7344 152.536 44.4766 150.944 42.8672C149.352 41.2578 147.877 39.4609 146.519 37.4766C145.161 35.4922 144.053 33.3047 143.194 30.9141C142.335 28.5234 141.906 26.2188 141.906 24C141.906 21.875 142.211 19.9609 142.819 18.2578C143.428 16.5547 144.224 15.1562 145.208 14.0625C146.191 12.9688 147.362 12.0469 148.72 11.2969C150.078 10.5469 151.459 10 152.864 9.65625C153.473 9.50728 154.094 9.38473 154.726 9.28858C155.231 9.58662 155.823 9.93653 156.503 10.3384L157.266 9.04688L157.205 7.54813C156.471 7.57813 155.748 7.63876 155.037 7.73031C154.369 7.33621 153.895 7.05631 153.614 6.89062C152.396 6.26562 151.311 5.39844 150.359 4.28906C149.5 3.2885 148.889 2.40868 148.525 1.64961L171.33 9.27812ZM157.327 10.5456L162.401 10.3383L158.029 7.75539C156.125 6.63055 154.906 5.91121 154.375 5.59805L154.337 5.57601L154.299 5.55617C153.265 5.02579 152.332 4.28426 151.497 3.31211C150.906 2.62368 150.473 2.03405 150.172 1.53898C150.793 1.51797 151.391 1.52756 151.966 1.56683C152.536 1.60571 153.246 1.72606 154.11 1.94585C154.925 2.15329 155.664 2.43289 156.333 2.7801C157.599 3.45741 159.133 4.55769 160.944 6.12588C162.752 7.69242 164.112 9.10672 165.057 10.3682L167.045 13.0214L166.753 13.9715L170.361 11.3921C171.17 10.8136 172.152 10.5 173.375 10.5C174.879 10.5 176.323 10.6328 177.709 10.8956C179.044 11.1489 180.388 11.609 181.742 12.2867C183.072 12.9524 184.208 13.7716 185.161 14.74C186.061 15.6532 186.834 16.8979 187.449 18.5289C188.047 20.1156 188.359 21.9325 188.359 24C188.359 26.0229 187.968 28.1559 187.16 30.4071C186.342 32.6841 185.291 34.7563 184.009 36.6294C182.698 38.5441 181.28 40.2707 179.755 41.8122C178.237 43.3462 176.752 44.5122 175.303 45.337C173.824 46.1786 172.699 46.5 171.877 46.5C170.937 46.5 170.286 46.4245 169.871 46.3151C169.62 46.2491 169.455 46.1906 169.356 46.1468C169.339 46.1394 169.326 46.1331 169.315 46.1281C168.935 45.7709 168.464 45.524 168.009 45.3418C167.371 45.0862 166.634 45 165.883 45C165.131 45 164.395 45.0862 163.756 45.3418C163.301 45.524 162.83 45.7709 162.45 46.1281C162.44 46.1331 162.427 46.1394 162.41 46.1468C162.31 46.1906 162.145 46.2491 161.895 46.3151C161.48 46.4245 160.829 46.5 159.889 46.5C159.067 46.5 157.941 46.1786 156.463 45.337C155.014 44.5122 153.528 43.3462 152.011 41.8122C150.485 40.2707 149.067 38.5441 147.757 36.6294C146.475 34.7563 145.423 32.6841 144.606 30.4071C143.797 28.1559 143.406 26.0229 143.406 24C143.406 22.0176 143.69 20.2782 144.232 18.7627C144.79 17.2024 145.496 15.9849 146.323 15.0654C147.189 14.1028 148.225 13.2835 149.445 12.6099C150.695 11.9194 151.954 11.4233 153.221 11.1133C154.523 10.7945 155.891 10.6043 157.327 10.5456ZM168.055 9.73175L167.525 11.4575L167.746 9.65117C168.134 6.48748 168.955 4.0797 170.125 2.33598L170.128 2.33149C170.16 2.28366 170.197 2.22656 170.238 2.16138C170.145 2.55341 170.012 3.06934 169.834 3.715C169.441 5.13939 168.849 7.14272 168.055 9.73175Z" fill="#64A847" stroke="#211714" stroke-width="3"/>
<path d="M241.067 8.11878C242.242 4.21648 242.83 2.01022 242.83 1.5C242.83 1.09375 242.682 0.742188 242.385 0.445312C242.089 0.148438 241.737 0 241.332 0C241.144 0 240.973 0.0546875 240.816 0.164062C240.66 0.273438 240.543 0.382812 240.465 0.492188C240.387 0.601562 240.278 0.773438 240.137 1.00781C239.997 1.24219 239.895 1.40625 239.833 1.5C238.772 3.08077 238.003 5.07151 237.527 7.47222C237.401 8.1089 237.296 8.77441 237.211 9.46875L241.067 8.11878ZM241.067 8.11878C240.542 8.33686 240.042 8.61384 239.569 8.95168L240.442 10.1719M241.067 8.11878L240.442 10.1719M240.442 10.1719L241.876 10.612C242.018 10.1495 242.153 9.7049 242.283 9.27812M240.442 10.1719L242.283 9.27812M242.283 9.27812C242.917 9.09271 243.599 9 244.329 9C245.921 9 247.458 9.14062 248.941 9.42188C250.424 9.70312 251.899 10.2109 253.367 10.9453C254.834 11.6797 256.106 12.5938 257.183 13.6875C258.26 14.7812 259.134 16.2188 259.806 18C260.477 19.7812 260.812 21.7812 260.812 24C260.812 26.2188 260.383 28.5234 259.525 30.9141C258.666 33.3047 257.558 35.4922 256.2 37.4766C254.842 39.4609 253.367 41.2578 251.774 42.8672C250.182 44.4766 248.59 45.7344 246.998 46.6406C245.406 47.5469 244.016 48 242.83 48C241.831 48 241.035 47.9219 240.442 47.7656C239.849 47.6094 239.458 47.4375 239.271 47.25C239.084 47.0625 238.795 46.8906 238.405 46.7344C238.014 46.5781 237.492 46.5 236.836 46.5C236.18 46.5 235.657 46.5781 235.267 46.7344C234.877 46.8906 234.588 47.0625 234.401 47.25C234.213 47.4375 233.823 47.6094 233.23 47.7656C232.637 47.9219 231.841 48 230.842 48C229.655 48 228.266 47.5469 226.674 46.6406C225.082 45.7344 223.49 44.4766 221.897 42.8672C220.305 41.2578 218.83 39.4609 217.472 37.4766C216.114 35.4922 215.006 33.3047 214.147 30.9141C213.289 28.5234 212.859 26.2188 212.859 24C212.859 21.875 213.164 19.9609 213.773 18.2578C214.381 16.5547 215.177 15.1562 216.161 14.0625C217.144 12.9688 218.315 12.0469 219.673 11.2969C221.031 10.5469 222.413 10 223.817 9.65625C224.426 9.50728 225.047 9.38473 225.679 9.28858C226.184 9.58662 226.776 9.93653 227.456 10.3384L228.219 9.04688L228.158 7.54813C227.424 7.57813 226.701 7.63876 225.99 7.73031C225.323 7.33621 224.848 7.05631 224.567 6.89062C223.349 6.26562 222.264 5.39844 221.312 4.28906C220.453 3.2885 219.842 2.40868 219.478 1.64961L242.283 9.27812ZM228.281 10.5456L233.355 10.3383L228.982 7.75539C227.078 6.63055 225.86 5.91121 225.328 5.59805L225.29 5.57601L225.252 5.55617C224.218 5.02579 223.285 4.28426 222.45 3.31211C221.859 2.62368 221.426 2.03405 221.125 1.53898C221.746 1.51797 222.344 1.52756 222.919 1.56683C223.489 1.60571 224.199 1.72606 225.063 1.94585C225.878 2.15329 226.617 2.43289 227.286 2.7801C228.553 3.45741 230.087 4.55769 231.897 6.12588C233.705 7.69242 235.065 9.10672 236.01 10.3682L237.998 13.0214L237.706 13.9715L241.314 11.3921C242.123 10.8136 243.105 10.5 244.329 10.5C245.832 10.5 247.276 10.6328 248.662 10.8956C249.997 11.1489 251.341 11.609 252.695 12.2867C254.025 12.9524 255.161 13.7716 256.114 14.74C257.014 15.6532 257.787 16.8979 258.402 18.5289C259 20.1156 259.312 21.9325 259.312 24C259.312 26.0229 258.921 28.1559 258.113 30.4071C257.295 32.6841 256.244 34.7563 254.962 36.6294C253.652 38.5441 252.233 40.2707 250.708 41.8122C249.191 43.3462 247.705 44.5122 246.256 45.337C244.777 46.1786 243.652 46.5 242.83 46.5C241.89 46.5 241.239 46.4245 240.824 46.3151C240.573 46.2491 240.408 46.1906 240.309 46.1468C240.292 46.1394 240.279 46.1331 240.268 46.1281C239.888 45.7709 239.417 45.524 238.962 45.3418C238.324 45.0862 237.587 45 236.836 45C236.084 45 235.348 45.0862 234.71 45.3418C234.255 45.524 233.783 45.7709 233.403 46.1281C233.393 46.1331 233.38 46.1394 233.363 46.1468C233.264 46.1906 233.098 46.2491 232.848 46.3151C232.433 46.4245 231.782 46.5 230.842 46.5C230.02 46.5 228.895 46.1786 227.416 45.337C225.967 44.5122 224.481 43.3462 222.964 41.8122C221.439 40.2707 220.02 38.5441 218.71 36.6294C217.428 34.7563 216.377 32.6841 215.559 30.4071C214.75 28.1559 214.359 26.0229 214.359 24C214.359 22.0176 214.643 20.2782 215.185 18.7627C215.743 17.2024 216.45 15.9849 217.276 15.0654C218.142 14.1028 219.179 13.2835 220.398 12.6099C221.649 11.9194 222.907 11.4233 224.174 11.1133C225.477 10.7945 226.845 10.6043 228.281 10.5456ZM239.008 9.73175L238.478 11.4575L238.699 9.65117C239.087 6.48748 239.908 4.0797 241.078 2.33598L241.081 2.33149C241.113 2.28366 241.15 2.22656 241.191 2.16138C241.098 2.55341 240.965 3.06934 240.787 3.715C240.395 5.13939 239.802 7.14272 239.008 9.73175Z" fill="#64A847" stroke="#211714" stroke-width="3"/>
<path d="M309.1 45.29L309.054 45.312L309.01 45.337C307.532 46.1786 306.406 46.5 305.585 46.5C304.645 46.5 303.994 46.4245 303.578 46.3151C303.328 46.2491 303.163 46.1906 303.063 46.1468C303.047 46.1394 303.033 46.1331 303.023 46.1281C302.643 45.7709 302.172 45.524 301.717 45.3418C301.078 45.0862 300.342 45 299.591 45C298.839 45 298.103 45.0862 297.464 45.3418C297.009 45.524 296.538 45.7709 296.158 46.1281C296.148 46.1331 296.134 46.1394 296.118 46.1468C296.018 46.1906 295.853 46.2491 295.603 46.3151C295.187 46.4245 294.536 46.5 293.596 46.5C292.775 46.5 291.649 46.1786 290.171 45.337C289.351 44.8705 288.52 44.2949 287.678 43.6053C287.992 43.6616 288.299 43.7088 288.59 43.7409C289.193 43.8077 289.948 43.8413 290.613 43.6366C290.967 43.5274 291.394 43.3209 291.732 42.9217C291.916 42.7051 292.045 42.4664 292.127 42.2188C292.784 41.515 293.621 40.5371 294.302 39.5542C294.696 38.9851 295.075 38.3623 295.328 37.7568C295.548 37.2309 295.827 36.367 295.532 35.5107C295.39 35.098 295.35 34.1337 295.472 33.1158C295.521 32.7005 295.589 32.3546 295.654 32.1187C295.69 32.0886 295.723 32.0594 295.75 32.0323C295.942 31.8466 296.06 31.6471 296.129 31.5148C296.269 31.2438 296.357 30.9449 296.416 30.6903C296.54 30.1589 296.609 29.4946 296.607 28.8097C296.606 28.1218 296.534 27.3477 296.337 26.6076C296.145 25.8825 295.803 25.0755 295.181 24.4456C295.084 24.3477 295.051 24.2899 295.042 24.2719C295.035 24.2585 295.033 24.2518 295.03 24.2349C295.018 24.1406 295.03 24.0221 295.104 23.5367C295.249 22.5733 295.4 21.2189 294.455 19.3292C293.992 18.4021 293.879 17.6699 293.749 16.8294C293.703 16.5294 293.655 16.2156 293.587 15.8742C293.467 15.2636 293.268 14.5466 292.787 13.8771C292.293 13.1901 291.596 12.6818 290.693 12.3037C290.31 12.1438 289.867 11.9665 289.459 11.8032C289.157 11.6823 288.873 11.569 288.648 11.476C288.511 11.4195 288.383 11.3655 288.264 11.314C289.38 10.8289 290.525 10.6022 291.056 10.546C292.523 10.5283 294.622 10.518 296.417 10.5716C297.332 10.5989 298.138 10.642 298.731 10.7048C298.966 10.7296 299.144 10.7552 299.271 10.7788L301.06 12.5679L300.836 13.2996L304.443 10.7202C304.71 10.5293 304.921 10.4714 305.249 10.4552C305.446 10.4455 305.67 10.4524 305.988 10.4667C306.021 10.4682 306.054 10.4697 306.089 10.4713C306.372 10.4843 306.712 10.5 307.083 10.5C308.418 10.5 309.664 10.6677 310.98 10.9077C311.495 11.3008 312.086 11.7118 312.637 12.0955C310.286 11.9571 308.817 12.3673 307.923 13.5629C307.707 13.8516 307.563 14.1397 307.463 14.3542C307.413 14.4621 307.378 14.5399 307.349 14.6046C307.307 14.6973 307.278 14.763 307.232 14.8515C307.139 15.0311 307.085 15.0885 306.951 15.1545C306.539 15.3575 306.126 15.655 305.834 16.1052C305.528 16.5766 305.445 17.078 305.471 17.5197C305.496 17.9288 305.615 18.2934 305.719 18.5624C305.815 18.8102 305.935 19.0642 306.032 19.2706C306.041 19.2895 306.05 19.3081 306.058 19.3261C306.525 20.3175 306.626 20.73 306.328 21.2283C305.4 22.7749 305.21 24.1137 305.375 25.4361C305.452 26.0468 305.601 26.6342 305.742 27.1651C305.761 27.2388 305.781 27.3117 305.8 27.384C305.925 27.8546 306.044 28.3015 306.143 28.7942C306.191 29.0351 306.139 29.5923 305.874 30.593C305.753 31.0516 305.606 31.5406 305.447 32.0639L305.417 32.1645C305.27 32.6494 305.114 33.1615 304.976 33.6653C304.692 34.7013 304.419 35.9001 304.487 36.9628C304.522 37.5138 304.653 38.1286 305.006 38.6867C305.187 38.9744 305.412 39.2218 305.674 39.4262C305.836 40.2647 306.239 41.1634 307.056 41.9158C308.172 42.9434 309.845 43.5 312.114 43.5C312.705 43.5 313.329 43.3808 313.873 43.2481C313.592 43.5443 313.337 43.7686 313.134 43.9085C313.063 43.9578 313.013 43.9868 312.982 44.0031C312.627 44.0194 312.27 44.0971 311.977 44.1749C311.624 44.2685 311.255 44.3924 310.908 44.521C310.213 44.7783 309.528 45.0833 309.1 45.29ZM302.137 9.05987L301.375 11.5442L301.603 9.68242C301.998 6.45154 302.687 4.04363 303.833 2.33598C303.882 2.26297 303.941 2.16936 304.008 2.06072C303.95 2.38959 303.857 2.83852 303.716 3.42963C303.421 4.66614 302.927 6.48524 302.137 9.05987Z" fill="#64A847" stroke="#211714" stroke-width="3"/>
</svg>
